<svg
  width="1em"
  height="1em"
  fill="none"
  viewBox="0 0 24 24"
  xmlns="http://www.w3.org/2000/svg"
>
  <title>An arrow pointing the caption to the image</title>
  <g clip-path="url(#a)">
    <path
      d="M65.08 43.036c-.025.01-.113.133-.187.277-.151.27-.575.871-.723 1.011-.05.046-.195.085-.336.09-.435.003-.743-.218-1.45-1.044-.47-.547-.587-.737-.67-1.091a8.606 8.606 0 0 0-.156-.528c-.098-.29-.265-1.113-.555-2.802-.48-2.772-1.065-5.79-1.112-5.768-.019.007-.09.372-.168.816-.256 1.474-.495 2.522-.95 4.13-.286 1.004-1.381 3.764-1.817 4.58a63.052 63.052 0 0 1-1.897 3.208c-1.167 1.808-3.37 4.659-4.546 5.89-2.333 2.441-4.991 3.827-9.001 4.684-2.516.54-5.015.56-8.167.072-3.555-.553-6.21-1.182-9.737-2.311-2.752-.883-4.42-1.555-5.864-2.361-.945-.528-1.448-.848-2.545-1.637a44.733 44.733 0 0 0-1.364-.952c-.472-.303-.76-.598-.846-.867-.05-.168-.048-.198.039-.255.13-.085.38-.107.812-.061.335.033.434.067 1.195.4.451.196 1.13.531 1.503.737 2.164 1.198 3.908 1.844 6.786 2.507 2.608.601 4.378.89 7.87 1.28 3.615.403 4.36.453 5.464.36 1.42-.117 3.28-.548 5.176-1.199a14.014 14.014 0 0 0 5.487-3.448c1.004-1.016 2.894-3.41 4.008-5.07 1.209-1.806 1.824-2.963 2.582-4.833 1.06-2.617 1.786-5.22 2.396-8.533.176-.955.39-2.431.368-2.497-.011-.024-.484.51-1.046 1.188-2.531 3.066-3.403 3.981-4.368 4.608-1.322.862-3.292 1.59-4.54 1.68-.706.053-.918.034-1.058-.098-.178-.17-.138-.388.238-1.309.353-.864.69-1.474 1.325-2.428.75-1.132 1.151-1.594 2.114-2.483.237-.216 1.204-1.14 2.143-2.048 1.845-1.774 3.344-3.09 4.194-3.683.647-.45 1.346-.842 1.605-.9.261-.064 1.203-.114 1.309-.071a.469.469 0 0 0 .214.014c.293-.05 1.148.156 1.443.341.25.162.332.359.506 1.205.295 1.477.605 2.648.922 3.46.532 1.379.672 1.777 1.24 3.507.752 2.299 1.826 7.056 2.104 9.333.194 1.595.255 2.508.179 2.697-.04.1-.093.192-.119.202Z"
      fill="#000"
    />
  </g>
  <defs>
    <clipPath id="a">
      <path
        fill="#fff"
        transform="scale(1 -1) rotate(68.072 83.521 3.956)"
        d="M0 0h56.84v59.641H0z"
      />
    </clipPath>
  </defs>
</svg>
