<svg
  class="curve"
  preserveAspectRatio="none"
  viewBox="0 0 1440 320"
  fill="none"
  xmlns="http://www.w3.org/2000/svg"
>
  <path
    d="M0,192L34.3,186.7C68.6,181,137,171,206,181.3C274.3,192,343,224,411,240C480,256,549,256,617,266.7C685.7,277,754,299,823,298.7C891.4,299,960,277,1029,266.7C1097.1,256,1166,256,1234,240C1302.9,224,1371,192,1406,176L1440,160L1440,0L1405.7,0C1371.4,0,1303,0,1234,0C1165.7,0,1097,0,1029,0C960,0,891,0,823,0C754.3,0,686,0,617,0C548.6,0,480,0,411,0C342.9,0,274,0,206,0C137.1,0,69,0,34,0L0,0Z"
  ></path>
</svg>
