<svg
  width="1408"
  height="12"
  viewBox="0 0 1408 12"
  fill="none"
  xmlns="http://www.w3.org/2000/svg"
>
  <title>a custom seperator seperating the menu from the content</title>
  <path
    d="M138.006 1.53747C164.73 3.01154 190.154 4.42686 216.058 5.79613C229.614 6.51252 256.885 6.80254 272.818 6.50776C275.533 6.45754 278.475 6.44463 281.296 6.45138C314.987 6.53138 344.93 5.64725 374.217 4.62477C404.837 3.55583 434.881 3.86093 465.069 4.70774C489.845 5.4027 516.041 5.60457 542.245 5.85171C556.994 5.99086 571.293 6.38925 585.68 6.69792C606.657 7.14812 625.137 8.02749 645.199 8.57456C673.514 9.34693 702.981 10.1727 734.55 9.86184C767.901 9.53332 800.5 8.90447 830.73 7.85618C855.876 6.98397 878.984 5.81935 904.06 4.93542C917.899 4.44751 933.905 4.26429 948.982 3.95502C977.36 3.37302 1000.27 4.27937 1023.99 5.21253C1038.63 5.78858 1055.39 6.1836 1071.88 6.41565C1096.02 6.75529 1120.41 6.99011 1145.21 7.1376C1204.87 7.49213 1262.26 6.84005 1317.3 5.43942C1345.73 4.71608 1374.03 4.05983 1403.28 3.56755C1404.91 3.54015 1406.41 3.47068 1407.97 3.42066C1407.54 3.59812 1407.96 3.87443 1406.55 3.93458C1401.94 4.1303 1396.74 4.26191 1391.64 4.39133C1355.16 5.31436 1318.89 6.28444 1282.06 7.13205C1252.91 7.80278 1223.3 8.39154 1192 8.32524C1174.38 8.28812 1156.69 8.26728 1139.1 8.33001C1109.05 8.43759 1080.93 7.81966 1052.6 7.27755C1032.76 6.89821 1014.92 6.19293 996.439 5.56984C969.32 4.65574 940.179 4.83617 913.472 5.839C888.085 6.79221 864.328 7.9725 838.489 8.85286C817.795 9.55794 795.279 10.0155 773.147 10.4824C758.618 10.789 743.42 11.0322 728.357 11.091C714.392 11.1452 699.809 11.0282 686.225 10.7841C669.854 10.4897 654.171 9.99623 638.336 9.5625C609.843 8.78219 581.503 7.97488 552.985 7.19954C549.159 7.09552 544.699 7.09632 540.502 7.07389C512.021 6.92223 484.236 6.62289 457.698 5.77727C433.27 4.99894 408.638 4.95428 382.955 5.79077C358.977 6.57168 333.699 7.28727 307.941 7.60488C294.86 7.76626 280.437 8.17279 265.079 7.77598C251.439 7.42364 235.59 7.84268 220.929 7.40479C207.196 6.99468 195.241 6.45635 184.262 5.75524C164.494 4.49276 143.974 3.29421 119.94 2.44284C97.5278 1.64923 57.3468 2.02241 37.8429 3.14673C30.4097 3.57509 22.081 3.95502 13.3452 4.22558C10.1227 4.32543 4.55614 4.04733 0.0563354 3.94173C1.91745 3.63385 2.55467 3.17888 5.83899 3.04311C23.4789 2.31302 40.9055 1.45727 60.123 1.04856C76.0001 0.710709 94.3081 0.870502 111.446 0.934221C120.038 0.96618 128.429 1.27564 138.009 1.53747H138.006Z"
    fill="black"
  />
</svg>
