<?xml version="1.0" encoding="UTF-8" standalone="no"?>
<svg
   xmlns:dc="http://purl.org/dc/elements/1.1/"
   xmlns:cc="http://creativecommons.org/ns#"
   xmlns:rdf="http://www.w3.org/1999/02/22-rdf-syntax-ns#"
   xmlns:svg="http://www.w3.org/2000/svg"
   xmlns="http://www.w3.org/2000/svg"
   xmlns:sodipodi="http://sodipodi.sourceforge.net/DTD/sodipodi-0.dtd"
   xmlns:inkscape="http://www.inkscape.org/namespaces/inkscape"
   width="250"
   height="119.98029"
   viewBox="0 0 200 95.984235"
   version="1.1"
   id="svg2"
   inkscape:version="0.91 r13725"
   sodipodi:docname="500px logo.svg">
  <metadata
     id="metadata2590">
    <rdf:RDF>
      <cc:Work
         rdf:about="">
        <dc:format>image/svg+xml</dc:format>
        <dc:type
           rdf:resource="http://purl.org/dc/dcmitype/StillImage" />
        <dc:title></dc:title>
      </cc:Work>
    </rdf:RDF>
  </metadata>
  <sodipodi:namedview
     pagecolor="#ffffff"
     bordercolor="#666666"
     borderopacity="1"
     objecttolerance="10"
     gridtolerance="10"
     guidetolerance="10"
     inkscape:pageopacity="0"
     inkscape:pageshadow="2"
     inkscape:window-width="1280"
     inkscape:window-height="738"
     id="namedview2588"
     showgrid="false"
     units="px"
     fit-margin-top="1"
     fit-margin-bottom="1"
     fit-margin-left="1"
     fit-margin-right="1"
     inkscape:zoom="2.6970053"
     inkscape:cx="133.69531"
     inkscape:cy="35.929306"
     inkscape:window-x="-8"
     inkscape:window-y="-8"
     inkscape:window-maximized="1"
     inkscape:current-layer="svg2" />
  <defs
     id="defs4">
    <clipPath
       id="clip1">
      <path
         d="m 36,70.28125 72,0 L 108,36 36,36 Z"
         id="path351"
         inkscape:connector-curvature="0" />
    </clipPath>
  </defs>
  <g
     style="clip-rule:nonzero;fill:#71767a;fill-opacity:1"
     id="g354"
     clip-path="url(#clip1)"
     transform="matrix(2.7555556,0,0,2.7555556,-98.400002,-98.400002)">
    <path
       inkscape:connector-curvature="0"
       id="path356"
       d="M 93.953125,63.046875 C 93.125,62.738281 92.339844,62.324219 91.582031,61.8125 c -0.757812,-0.511719 -1.46875,-1.089844 -2.136718,-1.734375 -0.667969,-0.644531 -1.289063,-1.300781 -1.867188,-1.96875 0.53125,-0.578125 1.132813,-1.210937 1.800781,-1.898437 0.671875,-0.695313 1.371094,-1.328125 2.101563,-1.90625 0.734375,-0.574219 1.515625,-1.054688 2.335937,-1.433594 0.824219,-0.375 1.679688,-0.566406 2.570313,-0.566406 1.648437,0 2.945312,0.554687 3.906251,1.667968 0.95312,1.113282 1.43359,2.445313 1.43359,4.003907 0,1.554687 -0.44531,2.867187 -1.33593,3.9375 -0.886724,1.066406 -2.160161,1.597656 -3.800786,1.597656 -0.9375,0 -1.816406,-0.152344 -2.636719,-0.464844 M 66.824219,61.976563 c -0.9375,-1.019532 -1.402344,-2.332032 -1.402344,-3.9375 0,-1.464844 0.457031,-2.785157 1.367188,-3.964844 0.914062,-1.179688 2.144531,-1.769531 3.703125,-1.769531 0.847656,0 1.691406,0.191406 2.535156,0.566406 0.847656,0.378906 1.660156,0.859375 2.4375,1.433594 0.777344,0.578125 1.523437,1.210937 2.238281,1.90625 0.710938,0.6875 1.332031,1.320312 1.867188,1.898437 -0.535157,0.621094 -1.136719,1.257813 -1.804688,1.902344 -0.667969,0.644531 -1.378906,1.222656 -2.132812,1.734375 -0.757813,0.511719 -1.558594,0.933594 -2.40625,1.269531 -0.84375,0.332031 -1.6875,0.496094 -2.535157,0.496094 -1.644531,0 -2.933593,-0.507813 -3.867187,-1.535156 m 7.90625,7.644531 C 75.910156,69.199219 77,68.640625 78,67.953125 c 1,-0.691406 1.949219,-1.492187 2.835938,-2.40625 0.886718,-0.910156 1.804687,-1.855469 2.738281,-2.835937 0.84375,0.980468 1.734375,1.925781 2.667969,2.835937 0.9375,0.914063 1.925781,1.714844 2.96875,2.40625 1.046875,0.6875 2.171875,1.246094 3.371093,1.667969 1.203125,0.421875 2.492188,0.628906 3.871094,0.628906 1.777344,0 3.390625,-0.320312 4.839845,-0.960937 1.44531,-0.648438 2.65625,-1.539063 3.63672,-2.671875 0.98047,-1.136719 1.73437,-2.457032 2.26953,-3.972657 C 107.73047,61.132813 108,59.507813 108,57.777344 c 0,-1.734375 -0.26953,-3.335938 -0.80078,-4.804688 -0.53516,-1.46875 -1.28906,-2.746093 -2.26953,-3.839843 -0.98047,-1.085938 -2.17969,-1.941407 -3.60547,-2.5625 -1.421876,-0.625 -3.027345,-0.9375 -4.804689,-0.9375 -1.421875,0 -2.746093,0.222656 -3.96875,0.664062 -1.226562,0.449219 -2.363281,1.035156 -3.40625,1.769531 -1.042968,0.734375 -2.023437,1.59375 -2.933593,2.570313 -0.914063,0.980469 -1.792969,1.980469 -2.636719,3 -0.894531,-1.066406 -1.789063,-2.078125 -2.703125,-3.035156 -0.914063,-0.957032 -1.890625,-1.800782 -2.9375,-2.535157 -1.046875,-0.734375 -2.179688,-1.320312 -3.402344,-1.769531 -1.226562,-0.441406 -2.570312,-0.664062 -4.039062,-0.664062 -1.78125,0 -3.378907,0.324218 -4.804688,0.96875 -1.425781,0.644531 -2.625,1.511718 -3.605469,2.601562 -0.976562,1.089844 -1.722656,2.378906 -2.234375,3.867188 -0.511718,1.492187 -0.765625,3.105468 -0.765625,4.839843 0,1.734375 0.265625,3.359375 0.800782,4.871094 0.535156,1.511719 1.308593,2.8125 2.335937,3.898438 1.023438,1.089843 2.246094,1.960937 3.667969,2.609375 1.425781,0.640625 3.046875,0.960937 4.875,0.960937 1.464844,0 2.789062,-0.207031 3.96875,-0.628906"
       style="fill:#71767a;fill-opacity:1;fill-rule:nonzero;stroke:none" />
    <path
       inkscape:connector-curvature="0"
       id="path358"
       d="m 45.273438,41.621094 -1.34375,7.636719 0.09375,0.09766 c 0.929687,-0.929688 1.921875,-1.59375 2.980468,-1.996094 1.054688,-0.398437 2.257813,-0.597656 3.601563,-0.597656 1.664062,0 3.140625,0.304687 4.421875,0.910156 1.277344,0.609375 2.359375,1.425781 3.242187,2.449219 0.882813,1.027344 1.550782,2.234375 2.019532,3.628906 0.460937,1.390625 0.695312,2.875 0.695312,4.441406 0,1.730469 -0.339844,3.339844 -1.007812,4.828125 -0.675782,1.488282 -1.578125,2.78125 -2.714844,3.867188 C 56.125,67.976563 54.800781,68.816406 53.296875,69.40625 51.789063,70 50.1875,70.28125 48.488281,70.25 c -1.628906,0 -3.191406,-0.21875 -4.679687,-0.648437 -1.492188,-0.433594 -2.8125,-1.097657 -3.964844,-1.996094 C 38.691406,66.710938 37.769531,65.597656 37.082031,64.269531 36.390625,62.941406 36.03125,61.394531 36,59.632813 l 6.824219,0 c 0.15625,1.539062 0.734375,2.761718 1.726562,3.671875 0.996094,0.917968 2.257813,1.371093 3.796875,1.371093 0.898438,0 1.703125,-0.183593 2.425782,-0.550781 0.722656,-0.367187 1.328125,-0.847656 1.824218,-1.441406 0.5,-0.589844 0.882813,-1.28125 1.15625,-2.066406 0.273438,-0.78125 0.40625,-1.59375 0.40625,-2.425782 0,-0.867187 -0.128906,-1.683593 -0.382812,-2.449218 C 53.519531,54.972656 53.136719,54.300781 52.625,53.726563 52.109375,53.148438 51.5,52.699219 50.796875,52.382813 50.09375,52.058594 49.277344,51.898438 48.347656,51.898438 c -1.214843,0 -2.210937,0.21875 -2.980468,0.648437 -0.765625,0.433594 -1.488282,1.113281 -2.160157,2.042969 l -6.152343,0 L 40.371094,36 l 18.785156,0 0,5.621094 z"
       style="fill:#71767a;fill-opacity:1;fill-rule:nonzero;stroke:none" />
  </g>
</svg>
