<svg aria-hidden="true" focusable="false" viewBox="0 0 120 139" fill="none" xmlns="http://www.w3.org/2000/svg"><g clip-path="url(#a)"><path d="m2.932 101.287 56.338 34.42 58.252-33.307L59.27 69.092 2.932 101.287Z" fill="#DBDBDB" fill-opacity=".2"/><path d="M59.27 2.475v66.618l58.252 33.307V35.782L59.27 2.475ZM59.27 2.475v66.618L2.932 101.287V35.782L59.27 2.475Z" fill="#F3F3F3" fill-opacity=".3"/><path d="M117.522 38.26c-.432 0-.856-.113-1.231-.328l-57.01-32.6-55.557 32.26A2.479 2.479 0 0 1 .082 34.82a2.475 2.475 0 0 1 1.15-1.507L58.026.337a2.474 2.474 0 0 1 2.474 0l58.244 33.299a2.474 2.474 0 0 1-1.231 4.624h.008Z" fill="#fff"/><path d="M56.792 4.949V2.474A2.473 2.473 0 0 1 59.27 0a2.479 2.479 0 0 1 2.477 2.474V4.95M59.27 29.19a2.482 2.482 0 0 1-2.478-2.474v-3.629a2.473 2.473 0 0 1 2.478-2.474 2.479 2.479 0 0 1 2.477 2.474v3.629a2.473 2.473 0 0 1-2.477 2.474Zm0-10.885a2.48 2.48 0 0 1-2.478-2.474v-3.626a2.473 2.473 0 0 1 2.478-2.474 2.48 2.48 0 0 1 2.477 2.474v3.626a2.473 2.473 0 0 1-2.477 2.474ZM59.27 61.836a2.48 2.48 0 0 1-2.478-2.475v-3.625a2.472 2.472 0 0 1 2.478-2.475 2.479 2.479 0 0 1 2.477 2.475v3.625a2.473 2.473 0 0 1-2.477 2.475Zm0-10.882a2.479 2.479 0 0 1-2.478-2.475v-3.628a2.472 2.472 0 0 1 2.478-2.474 2.479 2.479 0 0 1 2.477 2.474v3.628a2.473 2.473 0 0 1-2.477 2.475Zm0-10.882a2.479 2.479 0 0 1-2.478-2.475V33.97a2.472 2.472 0 0 1 2.478-2.474 2.479 2.479 0 0 1 2.477 2.474v3.628a2.472 2.472 0 0 1-1.529 2.286 2.48 2.48 0 0 1-.948.189ZM59.27 71.567a2.48 2.48 0 0 1-2.478-2.474v-2.475a2.473 2.473 0 0 1 2.478-2.474 2.48 2.48 0 0 1 2.477 2.474v2.475a2.473 2.473 0 0 1-2.477 2.474ZM117.522 104.874a2.476 2.476 0 0 1-2.477-2.474V35.782a2.476 2.476 0 0 1 4.229-1.75c.465.464.726 1.094.726 1.75V102.4a2.473 2.473 0 0 1-2.478 2.474ZM2.478 104.543A2.479 2.479 0 0 1 0 102.069V35.454a2.473 2.473 0 0 1 2.478-2.474 2.479 2.479 0 0 1 2.477 2.474v66.615a2.474 2.474 0 0 1-2.477 2.474Z" fill="#fff"/><path d="m116.602 99.682 2.152 1.23a2.475 2.475 0 0 1-2.46 4.296l-2.152-1.23M109.023 100.675a2.509 2.509 0 0 1-1.229-.325l-3.172-1.816a2.468 2.468 0 0 1-1.16-1.499 2.466 2.466 0 0 1 .876-2.607 2.475 2.475 0 0 1 2.747-.19l3.172 1.816a2.473 2.473 0 0 1-1.234 4.621Zm-9.52-5.444c-.431 0-.855-.112-1.229-.325L95.1 93.09a2.475 2.475 0 1 1 2.463-4.296l3.175 1.816a2.473 2.473 0 0 1-1.234 4.621ZM89.982 89.787c-.432 0-.856-.113-1.231-.328l-3.172-1.813a2.476 2.476 0 0 1-.92-3.378 2.478 2.478 0 0 1 3.382-.918l3.173 1.816a2.475 2.475 0 0 1-1.232 4.62Zm-9.523-5.45c-.43 0-.854-.113-1.228-.328l-3.173-1.813a2.48 2.48 0 0 1-1.23-2.462 2.475 2.475 0 0 1 1.807-2.078 2.483 2.483 0 0 1 1.883.239l3.176 1.815a2.476 2.476 0 0 1 1.171 2.79 2.474 2.474 0 0 1-2.406 1.837ZM70.954 78.9c-.431 0-.855-.112-1.229-.328l-3.175-1.815a2.476 2.476 0 0 1-.965-3.404 2.475 2.475 0 0 1 3.428-.89l3.172 1.816a2.476 2.476 0 0 1 1.162 2.783 2.474 2.474 0 0 1-2.393 1.838ZM38.6 84.232a2.479 2.479 0 0 1-2.398-1.829 2.472 2.472 0 0 1 1.148-2.786l3.09-1.792a2.478 2.478 0 0 1 3.67 2.772 2.474 2.474 0 0 1-1.18 1.506l-3.087 1.792c-.378.22-.807.337-1.244.337Zm9.264-5.382a2.48 2.48 0 0 1-2.39-1.83 2.472 2.472 0 0 1 1.145-2.783l3.087-1.795a2.48 2.48 0 0 1 3.744 1.801 2.471 2.471 0 0 1-1.26 2.48l-3.088 1.796c-.377.216-.803.33-1.237.33ZM10.799 100.373a2.48 2.48 0 0 1-2.396-1.83 2.472 2.472 0 0 1 1.15-2.785l3.087-1.795a2.48 2.48 0 0 1 3.701 1.808 2.474 2.474 0 0 1-1.21 2.47l-3.09 1.796a2.478 2.478 0 0 1-1.242.336Zm9.268-5.379a2.483 2.483 0 0 1-2.39-1.83 2.475 2.475 0 0 1 1.14-2.785l3.09-1.792a2.481 2.481 0 0 1 3.423.875 2.473 2.473 0 0 1-.933 3.403l-3.087 1.792c-.377.22-.807.337-1.243.337Zm9.253-5.385a2.48 2.48 0 0 1-2.39-1.83 2.472 2.472 0 0 1 1.144-2.782L31.16 83.2a2.48 2.48 0 0 1 3.388.895 2.473 2.473 0 0 1-.896 3.384l-3.09 1.795a2.482 2.482 0 0 1-1.243.334ZM5.864 103.627l-2.14 1.241a2.48 2.48 0 0 1-3.702-1.808 2.474 2.474 0 0 1 1.21-2.47l2.143-1.242" fill="#fff"/><path d="M59.27 138.182c-.445 0-.881-.119-1.264-.346L1.214 104.198a2.467 2.467 0 0 1-1.183-1.517 2.472 2.472 0 0 1 1.81-3.048 2.48 2.48 0 0 1 1.9.31l55.552 32.901 56.998-32.591a2.488 2.488 0 0 1 1.933-.33 2.476 2.476 0 0 1 1.309 4.003 2.497 2.497 0 0 1-.788.618l-58.244 33.313c-.375.213-.8.325-1.231.325Z" fill="#fff"/><path d="M59.27 138.182a2.48 2.48 0 0 1-2.478-2.475V69.092a2.473 2.473 0 0 1 2.478-2.474 2.48 2.48 0 0 1 2.477 2.474v66.615a2.474 2.474 0 0 1-2.477 2.475Z" fill="#fff"/><path d="M59.273 71.567a2.48 2.48 0 0 1-2.383-1.844 2.472 2.472 0 0 1 1.163-2.777l58.238-33.31a2.48 2.48 0 0 1 3.623 2.796 2.476 2.476 0 0 1-1.16 1.5L60.501 71.238a2.462 2.462 0 0 1-1.228.328Z" fill="#fff"/><path d="M59.267 71.567a2.48 2.48 0 0 1-1.26-.346L1.213 37.583a2.477 2.477 0 0 1-.868-3.391 2.475 2.475 0 0 1 2.483-1.188c.322.046.632.155.912.321l56.793 33.638a2.475 2.475 0 0 1-1.267 4.604Z" fill="#fff"/></g><defs><clipPath id="a"><path fill="#fff" d="M0 0h120v138.182H0z"/></clipPath></defs></svg>
