<svg viewBox="0 0 85 96" fill="none" xmlns="http://www.w3.org/2000/svg"><path fill-rule="evenodd" clip-rule="evenodd" d="M0 23.817v45.841a3.09 3.09 0 0 0 1.521 2.662L41.71 96l40.87-23.683a3.09 3.09 0 0 0 1.541-2.673V23.817L43.258.409a3.09 3.09 0 0 0-3.091.01L0 23.818Zm5.617 6.357v38.04L38.9 87.825V48.777L5.617 30.174Zm38.9 18.616v39.09l33.986-19.693V30.109L44.518 48.79Zm30.98-23.439L41.734 6.01 8.514 25.358l33.206 18.56L75.498 25.35Z" fill="currentColor"/><path fill-rule="evenodd" clip-rule="evenodd" d="M41.709 59.627c6.515 0 11.796-5.281 11.796-11.796S48.224 36.034 41.71 36.034s-11.797 5.282-11.797 11.797c0 6.515 5.282 11.796 11.797 11.796Zm0 6.18c9.928 0 17.976-8.048 17.976-17.976 0-9.928-8.048-17.976-17.976-17.976-9.928 0-17.976 8.048-17.976 17.976 0 9.928 8.048 17.976 17.976 17.976Z" fill="currentColor"/><circle cx="41.709" cy="47.831" r="12.358" fill="var(--spot-color)"/></svg>