<svg viewBox="0 0 154 112" fill="none" xmlns="http://www.w3.org/2000/svg"><g clip-path="url(#clip666)" fill="currentColor"><path d="M0 0v93.645h13.11l.263-68.66 16.107-.3V12.96l101.624-.3V0H0Z"/><path d="M29.517 12.286c-.262 1.311-.674 5.769.6 2.473.374-2.136 2.921-2.735-.6-2.473Zm5.094 0c-2.06 2.772-3.37 5.806-5.131 8.69-.487 2.51-.225 4.758 1.386 1.274 1.16-2.997 3.146-5.581 4.607-8.39 1.648-1.574.524-1.686-.862-1.574Zm4.645 0c-1.61 2.997-3.146 5.806-4.907 8.69-1.685 1.986-2.622 5.77.375 2.885 1.236-2.51 2.884-5.132 4.382-7.604.15-2.023 4.495-4.682.15-3.97Zm5.17 0c-1.649 2.622-2.997 5.619-5.02 8.129-.487 1.685-3.596 5.394-.187 4.195 1.273-2.51 2.884-5.17 4.382-7.604-.075-1.498 4.72-5.357.825-4.72Zm4.682 0c-1.05 2.81-3.072 5.244-4.27 7.941-.9 1.499-4.495 5.881-.488 4.27 1.124-3.146 3.447-5.805 4.983-8.765.187-1.872 4.045-4.12-.225-3.446Zm5.132 0c-1.574 2.622-2.997 5.282-4.533 7.941-.374 1.798-4.795 5.432-.75 4.57 1.949-2.81 2.998-5.88 5.133-8.54-.15-2.06 4.495-4.645.15-3.97Zm5.094 0c-2.06 2.772-3.371 5.806-5.132 8.69-1.648 1.948-3.072 5.807.525 2.773 1.048-2.847 3.109-5.282 4.345-8.017.3-1.498 3.933-4.008.262-3.446Zm4.682 0c-1.199 3.072-3.446 5.731-4.944 8.69-1.686 1.986-2.623 5.77.374 2.885 1.274-2.51 2.885-5.17 4.383-7.604.15-2.023 4.495-4.682.187-3.97Zm5.132 0c-1.423 2.36-2.884 5.057-4.345 7.38-.487 1.685-4.645 6.143-.862 4.944 1.498-2.772 3.034-5.694 5.02-8.353.075-1.499 3.708-4.645.187-3.97Zm4.682 0c-1.049 2.81-3.071 5.244-4.27 7.941-.862 1.499-4.495 5.881-.487 4.27 1.61-3.034 3.184-5.843 4.982-8.765.187-1.872 4.045-4.12-.225-3.446Zm5.132 0c-1.424 2.997-3.559 5.694-4.907 8.69-1.76 1.686-3.11 5.62-.187 3.184 2.022-2.659 3.296-5.618 5.056-8.428.3-1.872 4.046-4.082.038-3.446Zm5.132 0c-1.836 2.622-3.184 5.619-5.057 8.166-1.124 2.135-3.671 6.443.374 3.296 1.087-2.846 3.147-5.281 4.383-8.016.262-1.46 3.896-4.008.3-3.446Zm4.645 0c-1.237 2.922-3.147 5.507-4.57 8.316-1.873 1.91-3.26 6.293 0 3.259 1.498-2.772 3.034-5.694 5.019-8.353.337-1.948 3.296-3.821-.45-3.222Zm5.131 0c-1.423 2.36-2.884 5.057-4.345 7.38-.225 1.872-5.057 5.993-.899 5.131 1.424-2.66 2.997-5.281 4.495-7.94.375-1.312 4.383-5.432.75-4.57Zm5.17 0c-1.986 2.772-3.634 5.731-5.132 8.616-1.986 1.498-2.885 5.768 0 3.146 1.948-2.81 2.996-5.88 5.132-8.54-.225-1.611 3.558-3.858 0-3.222Zm4.644 0c-1.423 2.997-3.558 5.694-4.907 8.69-1.76 1.686-3.109 5.62-.187 3.184 2.023-2.659 3.296-5.618 5.057-8.428.3-1.872 4.045-4.082.037-3.446Zm5.132 0c-1.985 2.547-2.922 5.619-4.982 8.129-1.236 2.097-3.746 6.517.337 3.37 1.199-2.996 3.109-5.618 4.72-8.427.524-1.274 3.109-3.671-.075-3.072Zm4.645 0c-1.236 2.922-3.147 5.507-4.57 8.316-1.236 1.423-3.521 5.806-.15 3.746 1.386-2.847 3.147-5.47 4.645-8.241.562-1.798 4.083-4.607.075-3.82Zm5.244 0c-1.611 2.585-3.259 5.244-4.57 7.867-.861 1.61-4.495 5.843-.749 4.495 1.798-2.735 2.997-5.77 5.019-8.391 0-1.424 3.671-4.608.263-3.97h.037Zm5.057 0c-1.985 2.772-3.633 5.731-5.132 8.616-1.985 1.498-2.884 5.768 0 3.146 1.948-2.81 2.997-5.88 5.132-8.54-.225-1.611 3.558-3.858 0-3.222Zm4.645 0c-1.611 2.997-3.147 5.806-4.907 8.69-1.761 1.686-3.109 5.62-.188 3.184 2.023-2.622 3.222-5.618 5.057-8.353.637-1.873 4.008-4.195.038-3.52Zm5.132 0c-1.986 2.547-2.922 5.619-4.982 8.129-1.087 1.798-3.259 6.48.337 3.37 1.386-2.958 3.184-5.618 4.719-8.427.562-1.236 2.997-3.746-.074-3.072Zm4.719 0c-1.386 2.885-3.146 5.507-4.645 8.316-1.236 1.423-3.521 5.806-.149 3.746 1.386-2.847 3.146-5.47 4.644-8.241.525-1.723 4.083-4.607.15-3.82Zm5.132 0c-1.573 2.585-3.221 5.244-4.532 7.867-.75 1.648-4.608 5.693-.75 4.57 1.724-2.81 2.997-5.807 5.02-8.466 0-1.424 3.671-4.608.262-3.97Zm5.094 0c-2.06 2.735-3.296 5.806-5.131 8.616-1.349 2.547-3.596 4.645-3.334 7.791-.113 2.997 2.547-3.67 3.334-4.645 1.947-2.772 2.996-5.88 5.131-8.54 0-1.574 3.596-3.746 0-3.222Zm4.645 0c-1.611 2.997-3.146 5.806-4.907 8.69-1.386 2.997-3.596 5.694-4.982 8.766-1.124 2.285-3.558 4.345-3.221 7.23.412 2.172 3.034-4.234 4.083-5.507 1.723-2.81 2.996-5.806 5.019-8.466 1.124-2.921 3.446-5.244 4.308-8.278-.225-.6.412-2.36-.3-2.435Zm.3 7.979c-1.311 2.997-3.184 5.694-4.87 8.578-1.423 2.81-3.371 5.394-4.57 8.39-1.535 2.473-3.596 4.795-3.97 7.754-.525 4.683 1.685-1.61 2.659-2.846 2.135-2.623 3.184-5.732 5.17-8.541 1.273-2.51 2.884-5.17 4.382-7.604 1.311-1.873 1.311-3.484 1.199-5.731Zm0 8.952c-1.498 2.997-3.821 5.62-4.945 8.766-2.097 2.66-3.184 5.73-5.131 8.54-.824 2.472-3.559 4.495-3.334 7.38.337 3.37 2.36-3.934 3.858-4.683 1.386-2.922 3.184-5.581 4.72-8.39 1.461-2.847 3.371-5.432 4.57-8.391.562-.824.112-2.248.262-3.222Zm0 8.241c-1.498 2.997-3.296 5.731-4.87 8.616-1.498 2.809-3.296 5.468-4.682 8.39-1.498 2.472-3.596 4.72-3.858 7.604-.562 4.757 1.648-1.273 2.659-2.697 1.723-2.734 3.372-5.693 5.17-8.54 1.273-2.51 2.884-5.17 4.382-7.604 1.311-1.873 1.311-3.484 1.199-5.731v-.038Zm0 8.99c-1.873 2.622-3.184 5.507-4.87 8.24-1.573 2.81-3.259 5.77-5.132 8.466-.599 2.772-3.558 4.645-3.371 7.68-.112 4.045 2.248-2.81 3.297-3.784 1.46-2.847 3.371-5.431 4.569-8.39 1.873-2.697 3.559-5.62 5.17-8.466.562-1.124.262-2.435.337-3.746Zm0 8.24c-1.199 2.773-3.296 5.17-4.308 8.017-1.985 2.622-3.558 5.581-5.019 8.353-1.386 2.697-3.521 5.02-4.083 7.941-.6 4.87 1.573-.674 2.659-2.397 1.499-2.397 3.147-5.094 4.42-7.604 1.948-2.772 2.997-5.881 5.132-8.54 1.311-1.761 1.311-3.559 1.199-5.77Zm0 8.99c-1.873 2.623-3.109 5.507-4.87 8.13-1.91 2.809-2.996 5.88-5.132 8.577-.599 2.847-3.745 4.72-3.371 7.904-.299 3.82 2.173-2.997 3.184-3.858 1.386-3.072 3.596-5.769 4.982-8.766 1.761-2.921 3.371-5.73 4.945-8.802.562-.75.112-2.173.262-3.147v-.037Zm0 8.242c-1.761 2.959-3.371 5.73-4.945 8.765-1.498 2.435-3.109 5.094-4.382 7.604-1.236 2.847-4.196 5.057-4.083 8.316 1.311 1.648 2.847-3.933 4.083-5.245 1.573-2.809 3.259-5.73 5.132-8.428.936-2.996 3.371-5.244 4.195-8.278V71.92Zm0 8.24c-1.161 2.922-3.184 5.432-4.495 8.241-1.761 2.922-3.371 5.731-4.982 8.803 2.959.412 3.484-3.67 4.869-5.619 1.761-2.622 3.484-5.356 4.608-8.278V80.16Zm0 8.99c-1.498 2.585-3.559 5.956-4.495 8.054 2.847.375 3.858-3.708 4.495-5.918V89.15ZM42.552 39.855a.613.613 0 0 1-.187.45.607.607 0 0 1-.374.112h-9.777c-.15 0-.225.088-.225.263v7.416c0 .15.075.225.225.225h5.619c.175 0 .3.063.374.187.15.1.225.225.225.375v4.57c0 .15-.062.287-.187.412-.1.1-.225.15-.375.15h-5.656c-.175 0-.262.075-.262.224v7.492c0 .15.075.225.224.225h9.815c.15 0 .274.062.374.187.125.075.187.2.187.375v4.532c0 .15-.062.3-.187.45a.607.607 0 0 1-.374.112H25.884a.786.786 0 0 1-.413-.112c-.1-.15-.15-.3-.15-.45V35.323c0-.15.05-.275.15-.374a.572.572 0 0 1 .413-.188H41.99c.15 0 .274.063.374.188.125.1.187.224.187.374v4.532Zm9.74 27.757c-.35 0-.55-.175-.6-.524L44.95 35.36v-.15c0-.275.162-.412.487-.412h6.068c.374 0 .574.175.6.524l3.258 20.64c.025.124.063.187.112.187.075 0 .125-.063.15-.188l3.147-20.639c.025-.35.237-.524.637-.524h5.843c.4 0 .562.2.487.599l-6.742 31.727c-.075.35-.288.525-.637.525h-6.068v-.038Zm33.862-27.756a.567.567 0 0 1-.225.449.607.607 0 0 1-.375.112H75.74c-.15 0-.224.088-.224.263v7.416c0 .15.075.225.224.225h5.62c.174 0 .299.063.374.187.15.1.224.225.224.375v4.57c0 .15-.062.287-.187.412-.1.1-.225.15-.374.15h-5.62c-.174 0-.261.075-.261.224v7.492c0 .15.075.225.224.225h9.814c.15 0 .275.062.375.187.125.075.187.2.187.375v4.532c0 .15-.062.3-.187.45a.607.607 0 0 1-.375.112H69.447a.786.786 0 0 1-.412-.112c-.1-.15-.15-.3-.15-.45V35.323c0-.15.05-.275.15-.374a.572.572 0 0 1 .412-.188h16.107c.15 0 .275.063.375.188.125.1.187.224.187.374v4.532h.038Zm16.332 27.756c-.35 0-.575-.15-.675-.45l-3.596-12.96c-.075-.125-.15-.187-.225-.187h-1.61c-.15 0-.225.075-.225.224V67.05c0 .15-.062.3-.187.45a.607.607 0 0 1-.375.112h-5.506a.786.786 0 0 1-.412-.112c-.1-.15-.15-.3-.15-.45V35.323c0-.15.05-.275.15-.374a.573.573 0 0 1 .412-.188h9.477c1.748 0 3.284.425 4.607 1.274 1.349.799 2.385 1.948 3.109 3.446.749 1.498 1.124 3.221 1.124 5.17 0 1.847-.362 3.47-1.086 4.869-.7 1.423-1.673 2.522-2.922 3.296l-.112.15c-.05.025-.05.075 0 .15l4.307 13.86.038.186c0 .3-.175.45-.525.45h-5.618ZM96.38 40.455c-.15 0-.225.087-.225.262v7.979c0 .15.075.224.225.224h2.098c.998 0 1.785-.374 2.359-1.123.625-.774.937-1.798.937-3.072 0-1.323-.312-2.36-.937-3.109-.599-.8-1.386-1.199-2.36-1.199H96.38v.038Zm20.34 27.12a.643.643 0 0 1-.412-.15.644.644 0 0 1-.15-.412V54.8l-.038-.262-6.592-19.104v-.262c0-.275.162-.412.487-.412h5.731c.349 0 .574.15.674.45l2.884 11.237c.05.1.1.15.15.15.075 0 .125-.05.15-.15l2.922-11.237c.075-.3.287-.45.636-.45h5.769c.2 0 .35.063.45.188.074.1.074.25 0 .449l-6.593 19.104-.038.3V67.05c0 .15-.062.287-.187.412-.1.1-.225.15-.374.15h-5.507l.038-.037ZM25.097 101.399a.547.547 0 0 1-.337-.112.608.608 0 0 1-.113-.375V74.317c0-.15.038-.275.113-.374a.607.607 0 0 1 .374-.113h4.608c.125 0 .224.05.3.15.1.075.15.175.15.3v22.175c0 .125.062.187.187.187h8.278c.15 0 .262.05.337.15.1.075.15.175.15.3v3.82a.51.51 0 0 1-.15.375c-.075.075-.187.112-.337.112h-13.56Zm28.693 0c-.325 0-.5-.137-.524-.412l-.637-3.783c0-.15-.075-.225-.225-.225h-5.02c-.15 0-.224.075-.224.225l-.637 3.746c0 .299-.175.449-.524.449H41.39c-.324 0-.45-.174-.374-.524l5.806-26.595c.05-.3.212-.45.487-.45h5.319c.3 0 .474.138.524.412l5.769 26.633v.187c0 .25-.138.375-.412.375h-4.72v-.038Zm-5.843-8.877c0 .15.05.224.15.224h3.558c.125 0 .175-.074.15-.224l-1.873-10.75c0-.076-.025-.113-.075-.113-.075 0-.125.037-.15.112l-1.76 10.75Zm16.294 8.84a.723.723 0 0 1-.375-.113.829.829 0 0 1-.075-.374V90.649l-.037-.225-5.544-16.07v-.187c0-.25.125-.374.375-.374h4.87c.299 0 .486.137.561.412l2.435 9.44c.025.074.062.112.112.112.075 0 .125-.038.15-.113l2.435-9.44c.075-.249.262-.374.562-.374h4.832c.15 0 .275.05.374.15.075.075.075.2 0 .374l-5.543 16.07v10.451c0 .15-.063.275-.188.374-.075.075-.187.113-.337.113h-4.607Zm20.077.374c-2.422 0-4.357-.711-5.806-2.135-1.423-1.423-2.135-3.321-2.135-5.693V81.322c0-2.373.712-4.27 2.135-5.694 1.449-1.423 3.384-2.135 5.806-2.135 2.423 0 4.358.712 5.806 2.135 1.474 1.424 2.21 3.321 2.21 5.694v12.586c0 2.372-.749 4.27-2.247 5.693-1.424 1.424-3.346 2.135-5.769 2.135Zm0-4.794c.75 0 1.336-.25 1.76-.75.45-.499.675-1.173.675-2.022V81.06c0-.825-.225-1.486-.674-1.986-.425-.524-1.011-.786-1.76-.786-.75 0-1.337.25-1.761.749-.425.5-.637 1.173-.637 2.022v13.11c0 .825.212 1.5.637 2.024.45.5 1.036.749 1.76.749Zm18.804 4.794c-2.372 0-4.282-.749-5.73-2.247-1.424-1.498-2.136-3.471-2.136-5.918V74.28c0-.125.038-.225.112-.3a.6.6 0 0 1 .375-.15h4.607c.125 0 .225.05.3.15.125.075.187.175.187.3v19.852c0 .825.2 1.499.6 2.023.424.525.986.787 1.685.787.675 0 1.212-.25 1.611-.75.425-.549.637-1.248.637-2.097V74.28c0-.125.037-.225.112-.3.1-.1.225-.15.375-.15h4.57c.15 0 .262.05.337.15.1.075.15.175.15.3v19.29c0 2.473-.724 4.458-2.173 5.956-1.423 1.474-3.296 2.21-5.619 2.21Zm26.408-27.943c.125 0 .225.062.3.187.125.075.187.175.187.3v3.82a.46.46 0 0 1-.187.375.406.406 0 0 1-.3.112h-4.907c-.149 0-.224.063-.224.188v22.137c0 .15-.05.275-.15.375a.405.405 0 0 1-.3.112h-4.607a.607.607 0 0 1-.375-.112.607.607 0 0 1-.112-.375v-22.1c0-.15-.063-.225-.187-.225h-4.795a.724.724 0 0 1-.375-.112.833.833 0 0 1-.075-.375v-3.82c0-.125.038-.225.113-.3.1-.1.225-.15.374-.15h15.583l.037-.037Z"/><path fill-rule="evenodd" clip-rule="evenodd" d="M12.605 23.842H140v88.139H12.605V23.842Zm3.259 3.259v81.621H136.74V27.101H15.864Z"/></g><defs><clipPath id="clip666"><path fill="currentColor" d="M0 0h153.429v112H0z"/></clipPath></defs></svg>