<svg viewBox="0 0 495 320" fill="none" xmlns="http://www.w3.org/2000/svg">
  <path
    d="M209.5 74.6c-.9-2.6-1.8-4.9-2.6-7.4-2.6-8.6-7.7-15.8-13.9-21.8-6.6-6.4-15-10.2-24.2-12.4-17.7-4.4-35.5-4.9-53.5-3.3-20.9 1.9-41.8 4.1-62.7 6.2-8.9.9-17.8 2.3-26.7 3.3-2.3.2-4.8-.2-7-1-2.6-1-3.4-3.3-3.1-6.2.3-2.7 2.1-3.9 4.4-4.3 6.9-1 13.7-2 20.6-2.8 19.4-2.2 38.8-4.1 58.2-6.4 15.6-1.8 31.2-2.3 46.9-1.4 12.9.7 25.9 2.2 37.8 7.8 4.8 2.3 9.6 4.9 14 8.2 10.8 8 16.4 19.2 21.4 31 1 2.4 1.1 5.3 1.9 7.8.2.7 1.4 1.7 2.1 1.7 17.1-.6 34.2-1.4 51.3-2.1 8.9-.3 17.8-.7 26.7-.8 28.8-.4 57.6-1 86.4-.8 19.9.1 39.8 1.3 59.7 2.2 3 .1 6 1 9 1.6 8.2 1.6 10.3 8.6 12 15.1 1.5 5.8 1.9 11.9 2.4 17.8 1.3 14.7 2.3 29.5 3.5 44.3 1.3 16.9 2.3 33.8 4 50.6 2.2 22.2 2.5 44.4 2.1 66.6-.1 3.2-.7 6.4-1.2 9.6-.4 2.3-1.9 3.7-4.1 3.9-2.9.4-5.9.5-8.8.6-13.6.4-27.2.9-40.8 1.3-19.1.6-38.1 1.1-57.2 1.7-20.3.7-40.5 1.5-60.8 2.2-19 .6-37.9 1.1-56.9 1.8-19.7.7-39.4 1.5-59.1 2.2-21 .8-42 1.5-63 2.3L43.7 297c-1.9.1-3.9-.1-5.8 0-5.9.4-8.9-4.4-9.2-8.4-.2-2-.3-4.1-.3-6.1-.3-37.5-.8-75-.9-112.6 0-16.2.4-32.4.9-48.6.3-8.7 1-17.4 1.6-26 0-.5.1-.9.2-1.4 1-6 1.9-6.9 7.9-7.4 14.6-1.3 29.1-2.6 43.7-3.7 17.1-1.2 34.2-2.1 51.2-3.1 16.7-1 33.4-2.1 50.1-3.1 8.3-.5 16.6-1.1 24.9-1.6.4-.1.7-.2 1.5-.4ZM40.1 213h.3v8.3l.3 59.5c0 3.6.1 3.7 3.9 3.6 13.9-.5 27.7-1 41.6-1.5 18.2-.7 36.4-1.6 54.6-2.3 20.9-.8 41.8-1.5 62.7-2.2 10.4-.3 20.7-.5 31.1-.9 24.6-1 49.2-2.2 73.8-3.1 20.6-.8 41.3-1.4 61.9-2 22.6-.6 45.2-1.1 67.8-1.7 8.3-.2 16.7-.5 25-.9 4.3-.2 4.3-.3 4.7-4.5.1-1.5.2-3 .2-4.4.3-19.7-.7-39.4-2.4-59-1.1-12.5-1.5-25.1-2.5-37.6-1.6-20.6-3.2-41.1-5.1-61.7-.4-4.8-1.9-9.6-3.1-14.3-.6-2.4-2.4-3.6-5-3.7-12.7-.6-25.3-1.6-38-1.7-29-.2-58-.1-87 .1-13.7.1-27.4.6-41.1 1.2-17.1.7-34.2 1.6-51.3 2.4-16.1.8-32.2 1.3-48.2 2.3-20.6 1.2-41.2 2.5-61.8 3.9-20.1 1.3-40.2 2.7-60.4 4.1-6 .4-12 1-18 1.4-1.5.1-2 .7-2.1 2.2-.6 15.3-1.7 30.7-1.9 46-.3 22 0 44.3 0 66.5Z"
    fill="#FF5678"
  />
  <path
    d="M173.6 235.1c7.7.8 15.4 1.9 23.1 2.3 10.7.5 21.4.8 32.2.6 10.8-.2 21.6-1.3 32.4-1.7 6.9-.3 7.1.1 7 6.9 0 3.6-.5 7.2-.3 10.8.4 6.4-3.5 9.1-8.7 9.7-8.3 1-16.8 1.8-25.1 1.8-14.1.1-28.3-.2-42.4-.8-7.3-.3-14.5-1.5-21.7-2.6-2.6-.4-5.2-1.4-7.6-2.6-1.1-.5-2.1-2.3-2.2-3.5-.1-5.7.1-11.5.3-17.2.1-2.2 1.4-3.4 3.6-3.4h9.4v-.3ZM412 211.7c-7.4.4-7.6.4-8.2-7-.8-9-1-18.1-1.5-27.1-.4-6.7-1-13.5-1.5-20.2-.1-1.3-.1-2.6.1-3.9.3-2.6 1.7-4.3 4.4-4.6 10-1 20-2 30.1-2.9 3.1-.3 4.8 1.4 5 4.6.8 10.6 1.5 21.2 2.2 31.8.5 7.6 1.1 15.3 1.6 23 .2 3.1-1.4 5-4.4 5.1-9.3.4-18.5.8-27.8 1.2Zm21.3-35c-.6-6.9-1.1-13.4-1.7-19.9-.1-1.6-1.2-1.8-2.6-1.7-5.3.4-10.5.8-15.8 1.1-1.8.1-2.7 1.1-2.6 2.9.1 3.2.2 6.5.3 9.7.1 3 .4 6 .6 9.2 7.4-.4 14.4-.8 21.8-1.3Zm-20.3 26c7-.6 13.7-1.1 20.4-1.8.6-.1 1.6-1.5 1.5-2.3-.1-3.5-.7-7-.9-10.5-.1-1.8-.8-2.5-2.6-2.4-3.1.2-6.3.3-9.4.4-3.2.1-6.4.3-10.1.5.4 5.4.8 10.5 1.1 16.1ZM256.1 116h10.5c2.6 0 3.8 1.3 3.9 3.7.1 6.7.1 13.3 0 20-.1 3.8-1.8 5.2-5.7 5.2-6.4.1-12.8.1-19.1.1-4.4 0-5.5-1-5.5-5.3 0-5.9 0-11.8.1-17.8 0-4.3 1.6-5.8 5.9-5.8 3.2-.1 6.6-.1 9.9-.1Zm-112.3 15.4c0 3.3.1 6.7 0 10-.1 3.5-1.3 4.6-4.7 4.7-6.6.1-13.1.3-19.7.4-4.3 0-5.5-1.3-5.6-5.7-.1-5.5-.3-11.1-.4-16.6 0-4.7 1.6-6.3 6.3-6.3 6.7 0 13.5 0 20.2-.1 2.6 0 3.8 1 3.7 3.6.1 3.4.2 6.7.2 10Zm111.7 96.4c-3.4 0-6.9.1-10.3 0-3.1-.1-4.5-1.3-4.5-4.4-.1-6.3-.1-12.6 0-18.9.1-3.9 2.4-6 6.4-6h17.2c4.6 0 5.9 1.3 5.8 5.8-.1 6.7-.4 13.5-.5 20.2-.1 2.5-1.5 3.3-3.8 3.3h-10.3Zm40-.1h-8.3c-3.6 0-5-.9-5.4-4.5-.5-4.1-.3-8.3-.4-12.4 0-2.4-.1-4.8 0-7.2.1-3.3 1.6-5 4.9-5.1 6.4-.3 12.7-.4 19.1-.4 3.5 0 5.2 1.9 5.2 5.5-.1 6.6-.3 13.1-.5 19.7-.1 2.6-2.4 4.4-5.7 4.5-3-.1-6-.1-8.9-.1ZM212 144.8h-10.6c-2.2 0-3.4-1.2-3.4-3.2 0-7.1-.1-14.3.4-21.4.2-3.9 2.2-4.6 6.1-4.4 6 .3 12 .2 18.1.2 4 0 5 .7 5.1 4.8 0 6.8-.2 13.5-.5 20.3-.1 2.6-1.8 3.7-4.3 3.7-3.6.1-7.2.1-10.9 0 0 .1 0 0 0 0Zm-25.8-13.6v10c0 2.7-1.5 4.2-4 4.3-6.9.2-13.9.4-20.8.4-3.6 0-5.1-1.8-5-5.5.1-6.1.1-12.2.5-18.3.2-4.1 1.5-5 5.6-5 6.4 0 12.8-.1 19.1 0 3.6 0 4.6 1 4.7 4.6-.1 3.2-.1 6.3-.1 9.5Zm-99.5 14.2h-10c-3 0-4.3-1.1-4.4-4.1-.1-6.4-.2-12.8 0-19.1.1-4.1 1.2-4.9 5.3-4.9 6.6-.1 13.1-.2 19.7-.4 3.5-.1 4.7 1 4.7 4.5V140c0 3.8-1.5 5.4-5.4 5.4h-9.9Zm43.8 81.8c-3.5-.2-7-.3-10.5-.5-3-.2-4.3-1.6-4.3-4.6v-18.9c0-3.4 1.5-4.8 5-4.9 6.7-.1 13.3 0 20 0 3.6 0 4.8 1.1 4.8 4.8 0 5.5-.2 10.9-.4 16.3-.2 7.6-.2 7.6-7.8 7.6-2.3.1-4.5.1-6.8.2 0-.1 0 0 0 0ZM295 144.4h-10.6c-2.5 0-3.8-1.3-3.8-3.7 0-6.8-.1-13.5 0-20.3 0-2.6 2.3-4.7 5.2-4.7 6.8-.1 13.5-.1 20.3 0 2.4 0 3.9 1.3 3.9 3.8 0 7 .1 14.1-.1 21.1-.1 2.3-1.4 3.9-4.1 3.9-3.6-.2-7.2-.1-10.8-.1Zm-38.5 13.5h9.7c3.2 0 4.2.8 4.3 4 .2 5.5 0 10.9 0 16.4 0 .5-.2.9-.2 1.4-.6 6-1 6.3-7.1 6.3h-16.7c-4.5 0-5.8-1.3-5.9-5.7 0-5.3-.1-10.6-.1-15.8 0-5.1 1.5-6.6 6.6-6.7h9.4v.1ZM433.6 126c0 4.4.1 7.4-.1 10.3-.1.8-1.2 2.3-1.9 2.3-8 .6-16.1.9-24.1 1.4-2.6.1-2.4-1.9-2.6-3.4-.3-5.1-.5-10.2-.8-15.2-.1-1.9-.4-3.9-.4-5.8 0-2.1.9-3.8 3.4-3.9 7.4-.3 14.8-.8 22.2-1 2.4-.1 3.7 1.3 3.8 3.8.1 4.2.3 8.6.5 11.5Zm-136.7 30.8h8.6c3.5 0 5 1.4 5 4.9.1 5.7.1 11.5 0 17.2-.1 4.3-2 6-6.3 6.1-5.3.2-10.5.5-15.8.5-5.8 0-7.5-1.6-7.6-7.3-.1-5.3-.1-10.6 0-15.8 0-2.9 1.6-4.8 4.4-5.1 3.9-.4 7.8-.4 11.6-.6.1 0 .1 0 .1.1Zm-83.8 28.8c-3.2 0-6.5.1-9.7 0-3.4-.1-5-1.5-5-4.9 0-6.2 0-12.4.1-18.6.1-3 1.7-4.6 4.7-4.6 6.7-.1 13.3-.1 20 0 3.2 0 5.1 1.6 5.1 4.6 0 6.1-.1 12.2-.5 18.3-.3 4.4-1.6 5.3-6.1 5.3-2.9-.2-5.7-.2-8.6-.1 0 0 0-.1 0 0Zm-83.3.4h-9.7c-3.4-.1-4.5-1.2-4.5-4.5v-19.2c0-3.4 1-4.4 4.5-4.4h21.1c2.2 0 3.8.8 3.8 3-.1 7.5-.3 15.1-.9 22.6-.1.9-2.4 2.2-3.8 2.4-3.5.3-7 .1-10.5.1Zm224.8 26.1v9.7c0 1.9-.8 2.9-2.7 3.2-.7.1-1.4.4-2.2.4-6.1.2-12.2.5-18.3.6-3.9.1-5.5-1.3-5.7-5.2-.3-6.3-.4-12.6-.4-18.9 0-3 1.4-4.4 4.1-4.6 6.4-.3 12.8-.6 19.1-.7 4.1-.1 5.9 1.8 5.9 5.9v4.7c0 1.6.1 3.3.2 4.9-.1 0 0 0 0 0Zm10-88.2v-6.7c0-2.3 1.3-3.6 3.3-3.7 7.1-.5 14.2-.9 21.3-1.3 2.4-.1 3.6 1.1 3.7 3.4.3 7 .7 14 1 21 .1 2.5-.7 3.8-3.4 4-7.3.5-14.5 1.3-21.8 1.9-2.7.2-3.4-1.7-3.5-4-.1-5-.4-10.1-.6-14.6Zm-275.8 74h10.3c3.3 0 4.6 1.1 4.7 4.4.1 6.4.1 12.8-.1 19.2-.1 3.5-2.1 5.2-5.5 5.2H80.7c-4.5 0-5.7-1-5.7-5.5 0-6.9.3-13.9.5-20.8.1-2 1.2-2.6 3.1-2.5 3.4.1 6.8 0 10.2 0Zm69.7 15.4c0-3-.1-5.9 0-8.9.2-4.2 1.6-6.3 6-6.1 5.5.3 11.1.1 16.7.1 4.2 0 5.8 1.1 5.9 5.2.1 6.7-.2 13.3-.4 20-.1 2.2-1.5 3.7-3.8 3.7-6.9.1-13.9.1-20.8 0-2.6 0-3.4-2-3.5-4.2-.2-3.3-.1-6.6-.1-9.8Zm163.9-84.2v-10.3c0-2.4 1.2-3.7 3.5-3.8 7.4-.3 14.8-.5 22.2-.7 2.1 0 3.2 1.3 3.2 3.4.2 7 .3 14.1.4 21.1.1 2.5-1.3 3.7-3.7 3.8-7.1.2-14.2.5-21.4.6-3.2.1-4.1-.8-4.1-4.1-.1-3.3-.1-6.6-.1-10Zm28.9 40.8v10.6c0 2.1-.9 3.3-3.2 3.3-6.8.1-13.5.4-20.3.5-4.1.1-5.5-1.3-5.5-5.5v-18.6c0-2.7.9-4.2 3.8-4.3 5.9-.1 11.8-.3 17.8-.4 7.3-.1 7.3-.1 7.3 7.2 0 2.4 0 4.8.1 7.2-.1 0 0 0 0 0ZM171.4 186h-8.6c-3.2 0-5-1.8-5-5 0-5.6 0-11.3.1-16.9.1-4.4 2-6.2 6.3-6.3 6-.1 12-.1 18 0 3.5.1 4.8 1.3 4.8 4.7 0 6.3-.2 12.6-.4 18.8-.1 2.4-1.4 3.9-3.7 4.1-3.9.4-7.7.4-11.6.6.1.1.1 0 .1 0Zm-82.1-28.7c3.3 0 6.7-.1 10 0 3.7.1 4.6 1 4.6 4.6v17.5c0 3.9-1.4 5.3-5.4 5.5-6.1.2-12.2.3-18.3.4-3.5.1-5.1-.9-5.3-4.3-.4-6.8-.3-13.7-.2-20.5 0-2.4 1.8-3.3 4-3.3 3.5.1 7 .1 10.6.1Zm43.5 76.7c3.5 0 7 .1 10.5 0 2.1-.1 3.2.9 3.2 2.9.1 6.8.1 13.5 0 20.3 0 2.1-1.3 3.9-3.5 4-7 .3-14 .5-21 .4-2.8 0-4-1.9-4-4.7v-18c0-3.6 1.3-4.8 4.9-4.8 3.2-.2 6.6-.2 9.9-.1 0-.1 0-.1 0 0Zm245.4-.4c3.8-.4 7.5-.7 11.3-1.2 5.5-.7 8.6 1.1 8.5 7-.2 5.6.3 11.3.5 16.9.1 2.4-1.1 3.7-3.5 3.8-7 .2-14 .4-21 .5-3.4 0-4.2-.9-4.3-4.3-.1-5.4-.3-10.9-.4-16.3 0-1.2.2-2.4.4-3.6.4-2.2 1.6-3.2 3.8-3.1 1.6.1 3.1 0 4.7 0v.3ZM76.1 247.7v-8.9c.1-3.7 1.7-5.3 5.2-5.3 6.4 0 12.8-.1 19.1-.1 3 0 4.3 1 4.3 4.1.1 6 .2 12-.1 18-.2 4.4-1.1 5.1-5.4 5.1-6.3 0-12.6.1-18.8 0-3.4-.1-4.3-1.2-4.3-4.7.1-2.7.1-5.5 0-8.2.1 0 0 0 0 0ZM299.7 265c-3.1 0-6.1.1-9.2 0-3.3-.1-5.2-1.9-5.3-5.2-.3-5.9-.4-11.8-.5-17.8 0-2.5 1.2-3.6 3.8-3.7 6.5-.2 12.9-.6 19.4-.9 4.6-.2 5.9.9 6 5.5.2 5.5.3 11.1.4 16.6 0 3.7-1.4 5.2-5.1 5.4-1.6.1-3.1 0-4.7 0h-4.7l-.1.1Zm53.7-17.6c0 3.1-.1 6.1 0 9.2.1 2.2-.9 3.3-3.1 3.4-6.9.2-13.9.4-20.8.5-2.8 0-4.3-1.5-4.4-4.3-.2-5.7-.4-11.4-.5-17.1-.1-4.6.9-5.4 5.5-5.6 6.1-.3 12.2-.7 18.3-.9 3.6-.1 4.4.4 4.7 3.9.3 3.7.1 7.4.1 11.1 0-.2.1-.2.2-.2Zm69.7 10.5H416c-2.1 0-3.2-1.1-3.6-3.1-.1-.6-.3-1.3-.3-1.9-.2-5.3-.6-10.7-.6-16.1 0-4 1.9-5.8 6-6.1 6-.3 12-.7 18-1 3.1-.2 4.4 1 4.6 4.1.4 5.9.7 11.8 1 17.7.2 3.4-1.7 5.4-5.1 5.6-4.6.3-9.2.6-12.9.8Zm-210.3-64.8c4.1.9 8.4 1.4 12.4 2.7 7.3 2.4 11 13.9 6.6 20.4-5.1 7.5-14.6 12.3-24.2 9.3-6.7-2.2-12.2-5.9-13.7-13.4-1.6-7.7 1.6-16.4 13.9-18 1.6-.2 3.3-.3 5-.4-.1-.3-.1-.5 0-.6Zm-.4 25.6c4.9 0 7.7-1.4 11.7-5.6 2.8-2.9 2.8-5.5-.2-8.3-5-4.7-12.4-5.6-18.5-2.3-4 2.2-5.9 6.2-4 9.1 2.8 4.2 6.3 7.4 11 7.1Z"
    fill="#FF5678"
  />
</svg>
