<svg width="495" height="320" viewBox="0 0 495 320" fill="none" xmlns="http://www.w3.org/2000/svg">
<path d="M209.5 74.6C208.6 72 207.7 69.7 206.9 67.2C204.3 58.6 199.2 51.4 193 45.4C186.4 39 178 35.2 168.8 33C151.1 28.6 133.3 28.1 115.3 29.7C94.4 31.6 73.5 33.8 52.6 35.9C43.7 36.8 34.8 38.2 25.9 39.2C23.6 39.4 21.1 39 18.9 38.2C16.3 37.2 15.5 34.9 15.8 32C16.1 29.3 17.9 28.1 20.2 27.7C27.1 26.7 33.9 25.7 40.8 24.9C60.2 22.7 79.6 20.8 99 18.5C114.6 16.7 130.2 16.2 145.9 17.1C158.8 17.8 171.8 19.3 183.7 24.9C188.5 27.2 193.3 29.8 197.7 33.1C208.5 41.1 214.1 52.3 219.1 64.1C220.1 66.5 220.2 69.4 221 71.9C221.2 72.6 222.4 73.6 223.1 73.6C240.2 73 257.3 72.2 274.4 71.5C283.3 71.2 292.2 70.8 301.1 70.7C329.9 70.3 358.7 69.7 387.5 69.9C407.4 70 427.3 71.2 447.2 72.1C450.2 72.2 453.2 73.1 456.2 73.7C464.4 75.3 466.5 82.3 468.2 88.8C469.7 94.6 470.1 100.7 470.6 106.6C471.9 121.3 472.9 136.1 474.1 150.9C475.4 167.8 476.4 184.7 478.1 201.5C480.3 223.7 480.6 245.9 480.2 268.1C480.1 271.3 479.5 274.5 479 277.7C478.6 280 477.1 281.4 474.9 281.6C472 282 469 282.1 466.1 282.2C452.5 282.6 438.9 283.1 425.3 283.5C406.2 284.1 387.2 284.6 368.1 285.2C347.8 285.9 327.6 286.7 307.3 287.4C288.3 288 269.4 288.5 250.4 289.2C230.7 289.9 211 290.7 191.3 291.4C170.3 292.2 149.3 292.9 128.3 293.7L43.7 297C41.8 297.1 39.8 296.9 37.9 297C32 297.4 29 292.6 28.7 288.6C28.5 286.6 28.4 284.5 28.4 282.5C28.1 245 27.6 207.5 27.5 169.9C27.5 153.7 27.9 137.5 28.4 121.3C28.7 112.6 29.4 103.9 30 95.3C30 94.8 30.1 94.4 30.2 93.9C31.2 87.9 32.1 87 38.1 86.5C52.7 85.2 67.2 83.9 81.8 82.8C98.9 81.6 116 80.7 133 79.7C149.7 78.7 166.4 77.6 183.1 76.6C191.4 76.1 199.7 75.5 208 75C208.4 74.9 208.7 74.8 209.5 74.6ZM40.1 213H40.4V221.3L40.7 280.8C40.7 284.4 40.8 284.5 44.6 284.4C58.5 283.9 72.3 283.4 86.2 282.9C104.4 282.2 122.6 281.3 140.8 280.6C161.7 279.8 182.6 279.1 203.5 278.4C213.9 278.1 224.2 277.9 234.6 277.5C259.2 276.5 283.8 275.3 308.4 274.4C329 273.6 349.7 273 370.3 272.4C392.9 271.8 415.5 271.3 438.1 270.7C446.4 270.5 454.8 270.2 463.1 269.8C467.4 269.6 467.4 269.5 467.8 265.3C467.9 263.8 468 262.3 468 260.9C468.3 241.2 467.3 221.5 465.6 201.9C464.5 189.4 464.1 176.8 463.1 164.3C461.5 143.7 459.9 123.2 458 102.6C457.6 97.8 456.1 93 454.9 88.3C454.3 85.9 452.5 84.7 449.9 84.6C437.2 84 424.6 83 411.9 82.9C382.9 82.7 353.9 82.8 324.9 83C311.2 83.1 297.5 83.6 283.8 84.2C266.7 84.9 249.6 85.8 232.5 86.6C216.4 87.4 200.3 87.9 184.3 88.9C163.7 90.1 143.1 91.4 122.5 92.8C102.4 94.1 82.3 95.5 62.1 96.9C56.1 97.3 50.1 97.9 44.1 98.3C42.6 98.4 42.1 99 42 100.5C41.4 115.8 40.3 131.2 40.1 146.5C39.8 168.5 40.1 190.8 40.1 213V213Z" fill="black"/>
<path d="M173.6 235.1C181.3 235.9 189 237 196.7 237.4C207.4 237.9 218.1 238.2 228.9 238C239.7 237.8 250.5 236.7 261.3 236.3C268.2 236 268.4 236.4 268.3 243.2C268.3 246.8 267.8 250.4 268 254C268.4 260.4 264.5 263.1 259.3 263.7C251 264.7 242.5 265.5 234.2 265.5C220.1 265.6 205.9 265.3 191.8 264.7C184.5 264.4 177.3 263.2 170.1 262.1C167.5 261.7 164.9 260.7 162.5 259.5C161.4 259 160.4 257.2 160.3 256C160.2 250.3 160.4 244.5 160.6 238.8C160.7 236.6 162 235.4 164.2 235.4H173.6V235.1V235.1ZM412 211.7C404.6 212.1 404.4 212.1 403.8 204.7C403 195.7 402.8 186.6 402.3 177.6C401.9 170.9 401.3 164.1 400.8 157.4C400.7 156.1 400.7 154.8 400.9 153.5C401.2 150.9 402.6 149.2 405.3 148.9C415.3 147.9 425.3 146.9 435.4 146C438.5 145.7 440.2 147.4 440.4 150.6C441.2 161.2 441.9 171.8 442.6 182.4C443.1 190 443.7 197.7 444.2 205.4C444.4 208.5 442.8 210.4 439.8 210.5C430.5 210.9 421.3 211.3 412 211.7V211.7ZM433.3 176.7C432.7 169.8 432.2 163.3 431.6 156.8C431.5 155.2 430.4 155 429 155.1C423.7 155.5 418.5 155.9 413.2 156.2C411.4 156.3 410.5 157.3 410.6 159.1C410.7 162.3 410.8 165.6 410.9 168.8C411 171.8 411.3 174.8 411.5 178C418.9 177.6 425.9 177.2 433.3 176.7ZM413 202.7C420 202.1 426.7 201.6 433.4 200.9C434 200.8 435 199.4 434.9 198.6C434.8 195.1 434.2 191.6 434 188.1C433.9 186.3 433.2 185.6 431.4 185.7C428.3 185.9 425.1 186 422 186.1C418.8 186.2 415.6 186.4 411.9 186.6C412.3 192 412.7 197.1 413 202.7ZM256.1 116H266.6C269.2 116 270.4 117.3 270.5 119.7C270.6 126.4 270.6 133 270.5 139.7C270.4 143.5 268.7 144.9 264.8 144.9C258.4 145 252 145 245.7 145C241.3 145 240.2 144 240.2 139.7C240.2 133.8 240.2 127.9 240.3 121.9C240.3 117.6 241.9 116.1 246.2 116.1C249.4 116 252.8 116 256.1 116V116ZM143.8 131.4C143.8 134.7 143.9 138.1 143.8 141.4C143.7 144.9 142.5 146 139.1 146.1C132.5 146.2 126 146.4 119.4 146.5C115.1 146.5 113.9 145.2 113.8 140.8C113.7 135.3 113.5 129.7 113.4 124.2C113.4 119.5 115 117.9 119.7 117.9C126.4 117.9 133.2 117.9 139.9 117.8C142.5 117.8 143.7 118.8 143.6 121.4C143.7 124.8 143.8 128.1 143.8 131.4V131.4ZM255.5 227.8C252.1 227.8 248.6 227.9 245.2 227.8C242.1 227.7 240.7 226.5 240.7 223.4C240.6 217.1 240.6 210.8 240.7 204.5C240.8 200.6 243.1 198.5 247.1 198.5H264.3C268.9 198.5 270.2 199.8 270.1 204.3C270 211 269.7 217.8 269.6 224.5C269.5 227 268.1 227.8 265.8 227.8H255.5V227.8ZM295.5 227.7H287.2C283.6 227.7 282.2 226.8 281.8 223.2C281.3 219.1 281.5 214.9 281.4 210.8C281.4 208.4 281.3 206 281.4 203.6C281.5 200.3 283 198.6 286.3 198.5C292.7 198.2 299 198.1 305.4 198.1C308.9 198.1 310.6 200 310.6 203.6C310.5 210.2 310.3 216.7 310.1 223.3C310 225.9 307.7 227.7 304.4 227.8C301.4 227.7 298.4 227.7 295.5 227.7V227.7ZM212 144.8H201.4C199.2 144.8 198 143.6 198 141.6C198 134.5 197.9 127.3 198.4 120.2C198.6 116.3 200.6 115.6 204.5 115.8C210.5 116.1 216.5 116 222.6 116C226.6 116 227.6 116.7 227.7 120.8C227.7 127.6 227.5 134.3 227.2 141.1C227.1 143.7 225.4 144.8 222.9 144.8C219.3 144.9 215.7 144.9 212 144.8C212 144.9 212 144.8 212 144.8V144.8ZM186.2 131.2V141.2C186.2 143.9 184.7 145.4 182.2 145.5C175.3 145.7 168.3 145.9 161.4 145.9C157.8 145.9 156.3 144.1 156.4 140.4C156.5 134.3 156.5 128.2 156.9 122.1C157.1 118 158.4 117.1 162.5 117.1C168.9 117.1 175.3 117 181.6 117.1C185.2 117.1 186.2 118.1 186.3 121.7C186.2 124.9 186.2 128 186.2 131.2V131.2ZM86.7 145.4H76.7C73.7 145.4 72.4 144.3 72.3 141.3C72.2 134.9 72.1 128.5 72.3 122.2C72.4 118.1 73.5 117.3 77.6 117.3C84.2 117.2 90.7 117.1 97.3 116.9C100.8 116.8 102 117.9 102 121.4V140C102 143.8 100.5 145.4 96.6 145.4H86.7V145.4ZM130.5 227.2C127 227 123.5 226.9 120 226.7C117 226.5 115.7 225.1 115.7 222.1V203.2C115.7 199.8 117.2 198.4 120.7 198.3C127.4 198.2 134 198.3 140.7 198.3C144.3 198.3 145.5 199.4 145.5 203.1C145.5 208.6 145.3 214 145.1 219.4C144.9 227 144.9 227 137.3 227C135 227.1 132.8 227.1 130.5 227.2C130.5 227.1 130.5 227.2 130.5 227.2V227.2ZM295 144.4H284.4C281.9 144.4 280.6 143.1 280.6 140.7C280.6 133.9 280.5 127.2 280.6 120.4C280.6 117.8 282.9 115.7 285.8 115.7C292.6 115.6 299.3 115.6 306.1 115.7C308.5 115.7 310 117 310 119.5C310 126.5 310.1 133.6 309.9 140.6C309.8 142.9 308.5 144.5 305.8 144.5C302.2 144.3 298.6 144.4 295 144.4V144.4ZM256.5 157.9H266.2C269.4 157.9 270.4 158.7 270.5 161.9C270.7 167.4 270.5 172.8 270.5 178.3C270.5 178.8 270.3 179.2 270.3 179.7C269.7 185.7 269.3 186 263.2 186H246.5C242 186 240.7 184.7 240.6 180.3C240.6 175 240.5 169.7 240.5 164.5C240.5 159.4 242 157.9 247.1 157.8H256.5V157.9ZM433.6 126C433.6 130.4 433.7 133.4 433.5 136.3C433.4 137.1 432.3 138.6 431.6 138.6C423.6 139.2 415.5 139.5 407.5 140C404.9 140.1 405.1 138.1 404.9 136.6C404.6 131.5 404.4 126.4 404.1 121.4C404 119.5 403.7 117.5 403.7 115.6C403.7 113.5 404.6 111.8 407.1 111.7C414.5 111.4 421.9 110.9 429.3 110.7C431.7 110.6 433 112 433.1 114.5C433.2 118.7 433.4 123.1 433.6 126V126ZM296.9 156.8H305.5C309 156.8 310.5 158.2 310.5 161.7C310.6 167.4 310.6 173.2 310.5 178.9C310.4 183.2 308.5 184.9 304.2 185C298.9 185.2 293.7 185.5 288.4 185.5C282.6 185.5 280.9 183.9 280.8 178.2C280.7 172.9 280.7 167.6 280.8 162.4C280.8 159.5 282.4 157.6 285.2 157.3C289.1 156.9 293 156.9 296.8 156.7C296.9 156.7 296.9 156.7 296.9 156.8V156.8ZM213.1 185.6C209.9 185.6 206.6 185.7 203.4 185.6C200 185.5 198.4 184.1 198.4 180.7C198.4 174.5 198.4 168.3 198.5 162.1C198.6 159.1 200.2 157.5 203.2 157.5C209.9 157.4 216.5 157.4 223.2 157.5C226.4 157.5 228.3 159.1 228.3 162.1C228.3 168.2 228.2 174.3 227.8 180.4C227.5 184.8 226.2 185.7 221.7 185.7C218.8 185.5 216 185.5 213.1 185.6C213.1 185.6 213.1 185.5 213.1 185.6ZM129.8 186H120.1C116.7 185.9 115.6 184.8 115.6 181.5V162.3C115.6 158.9 116.6 157.9 120.1 157.9H141.2C143.4 157.9 145 158.7 145 160.9C144.9 168.4 144.7 176 144.1 183.5C144 184.4 141.7 185.7 140.3 185.9C136.8 186.2 133.3 186 129.8 186V186ZM354.6 212.1V221.8C354.6 223.7 353.8 224.7 351.9 225C351.2 225.1 350.5 225.4 349.7 225.4C343.6 225.6 337.5 225.9 331.4 226C327.5 226.1 325.9 224.7 325.7 220.8C325.4 214.5 325.3 208.2 325.3 201.9C325.3 198.9 326.7 197.5 329.4 197.3C335.8 197 342.2 196.7 348.5 196.6C352.6 196.5 354.4 198.4 354.4 202.5V207.2C354.4 208.8 354.5 210.5 354.6 212.1C354.5 212.1 354.6 212.1 354.6 212.1V212.1ZM364.6 123.9V117.2C364.6 114.9 365.9 113.6 367.9 113.5C375 113 382.1 112.6 389.2 112.2C391.6 112.1 392.8 113.3 392.9 115.6C393.2 122.6 393.6 129.6 393.9 136.6C394 139.1 393.2 140.4 390.5 140.6C383.2 141.1 376 141.9 368.7 142.5C366 142.7 365.3 140.8 365.2 138.5C365.1 133.5 364.8 128.4 364.6 123.9V123.9ZM88.8 197.9H99.1C102.4 197.9 103.7 199 103.8 202.3C103.9 208.7 103.9 215.1 103.7 221.5C103.6 225 101.6 226.7 98.2 226.7H80.7C76.2 226.7 75 225.7 75 221.2C75 214.3 75.3 207.3 75.5 200.4C75.6 198.4 76.7 197.8 78.6 197.9C82 198 85.4 197.9 88.8 197.9V197.9ZM158.5 213.3C158.5 210.3 158.4 207.4 158.5 204.4C158.7 200.2 160.1 198.1 164.5 198.3C170 198.6 175.6 198.4 181.2 198.4C185.4 198.4 187 199.5 187.1 203.6C187.2 210.3 186.9 216.9 186.7 223.6C186.6 225.8 185.2 227.3 182.9 227.3C176 227.4 169 227.4 162.1 227.3C159.5 227.3 158.7 225.3 158.6 223.1C158.4 219.8 158.5 216.5 158.5 213.3V213.3ZM322.4 129.1V118.8C322.4 116.4 323.6 115.1 325.9 115C333.3 114.7 340.7 114.5 348.1 114.3C350.2 114.3 351.3 115.6 351.3 117.7C351.5 124.7 351.6 131.8 351.7 138.8C351.8 141.3 350.4 142.5 348 142.6C340.9 142.8 333.8 143.1 326.6 143.2C323.4 143.3 322.5 142.4 322.5 139.1C322.4 135.8 322.4 132.5 322.4 129.1V129.1ZM351.3 169.9V180.5C351.3 182.6 350.4 183.8 348.1 183.8C341.3 183.9 334.6 184.2 327.8 184.3C323.7 184.4 322.3 183 322.3 178.8V160.2C322.3 157.5 323.2 156 326.1 155.9C332 155.8 337.9 155.6 343.9 155.5C351.2 155.4 351.2 155.4 351.2 162.7C351.2 165.1 351.2 167.5 351.3 169.9C351.2 169.9 351.3 169.9 351.3 169.9V169.9ZM171.4 186H162.8C159.6 186 157.8 184.2 157.8 181C157.8 175.4 157.8 169.7 157.9 164.1C158 159.7 159.9 157.9 164.2 157.8C170.2 157.7 176.2 157.7 182.2 157.8C185.7 157.9 187 159.1 187 162.5C187 168.8 186.8 175.1 186.6 181.3C186.5 183.7 185.2 185.2 182.9 185.4C179 185.8 175.2 185.8 171.3 186C171.4 186.1 171.4 186 171.4 186V186ZM89.3 157.3C92.6 157.3 96 157.2 99.3 157.3C103 157.4 103.9 158.3 103.9 161.9V179.4C103.9 183.3 102.5 184.7 98.5 184.9C92.4 185.1 86.3 185.2 80.2 185.3C76.7 185.4 75.1 184.4 74.9 181C74.5 174.2 74.6 167.3 74.7 160.5C74.7 158.1 76.5 157.2 78.7 157.2C82.2 157.3 85.7 157.3 89.3 157.3ZM132.8 234C136.3 234 139.8 234.1 143.3 234C145.4 233.9 146.5 234.9 146.5 236.9C146.6 243.7 146.6 250.4 146.5 257.2C146.5 259.3 145.2 261.1 143 261.2C136 261.5 129 261.7 122 261.6C119.2 261.6 118 259.7 118 256.9V238.9C118 235.3 119.3 234.1 122.9 234.1C126.1 233.9 129.5 233.9 132.8 234C132.8 233.9 132.8 233.9 132.8 234V234ZM378.2 233.6C382 233.2 385.7 232.9 389.5 232.4C395 231.7 398.1 233.5 398 239.4C397.8 245 398.3 250.7 398.5 256.3C398.6 258.7 397.4 260 395 260.1C388 260.3 381 260.5 374 260.6C370.6 260.6 369.8 259.7 369.7 256.3C369.6 250.9 369.4 245.4 369.3 240C369.3 238.8 369.5 237.6 369.7 236.4C370.1 234.2 371.3 233.2 373.5 233.3C375.1 233.4 376.6 233.3 378.2 233.3V233.6V233.6ZM76.1 247.7V238.8C76.2 235.1 77.8 233.5 81.3 233.5C87.7 233.5 94.1 233.4 100.4 233.4C103.4 233.4 104.7 234.4 104.7 237.5C104.8 243.5 104.9 249.5 104.6 255.5C104.4 259.9 103.5 260.6 99.2 260.6C92.9 260.6 86.6 260.7 80.4 260.6C77 260.5 76.1 259.4 76.1 255.9C76.2 253.2 76.2 250.4 76.1 247.7C76.2 247.7 76.1 247.7 76.1 247.7V247.7ZM299.7 265C296.6 265 293.6 265.1 290.5 265C287.2 264.9 285.3 263.1 285.2 259.8C284.9 253.9 284.8 248 284.7 242C284.7 239.5 285.9 238.4 288.5 238.3C295 238.1 301.4 237.7 307.9 237.4C312.5 237.2 313.8 238.3 313.9 242.9C314.1 248.4 314.2 254 314.3 259.5C314.3 263.2 312.9 264.7 309.2 264.9C307.6 265 306.1 264.9 304.5 264.9H299.8L299.7 265V265ZM353.4 247.4C353.4 250.5 353.3 253.5 353.4 256.6C353.5 258.8 352.5 259.9 350.3 260C343.4 260.2 336.4 260.4 329.5 260.5C326.7 260.5 325.2 259 325.1 256.2C324.9 250.5 324.7 244.8 324.6 239.1C324.5 234.5 325.5 233.7 330.1 233.5C336.2 233.2 342.3 232.8 348.4 232.6C352 232.5 352.8 233 353.1 236.5C353.4 240.2 353.2 243.9 353.2 247.6C353.2 247.4 353.3 247.4 353.4 247.4V247.4ZM423.1 257.9H416C413.9 257.9 412.8 256.8 412.4 254.8C412.3 254.2 412.1 253.5 412.1 252.9C411.9 247.6 411.5 242.2 411.5 236.8C411.5 232.8 413.4 231 417.5 230.7C423.5 230.4 429.5 230 435.5 229.7C438.6 229.5 439.9 230.7 440.1 233.8C440.5 239.7 440.8 245.6 441.1 251.5C441.3 254.9 439.4 256.9 436 257.1C431.4 257.4 426.8 257.7 423.1 257.9V257.9ZM212.8 193.1C216.9 194 221.2 194.5 225.2 195.8C232.5 198.2 236.2 209.7 231.8 216.2C226.7 223.7 217.2 228.5 207.6 225.5C200.9 223.3 195.4 219.6 193.9 212.1C192.3 204.4 195.5 195.7 207.8 194.1C209.4 193.9 211.1 193.8 212.8 193.7C212.7 193.4 212.7 193.2 212.8 193.1V193.1ZM212.4 218.7C217.3 218.7 220.1 217.3 224.1 213.1C226.9 210.2 226.9 207.6 223.9 204.8C218.9 200.1 211.5 199.2 205.4 202.5C201.4 204.7 199.5 208.7 201.4 211.6C204.2 215.8 207.7 219 212.4 218.7V218.7Z" fill="black"/>
</svg>
