<svg aria-hidden="true" focusable="false" viewBox="0 0 120 120" fill="none" xmlns="http://www.w3.org/2000/svg"><path d="M112.135 59.995c.335 22.204-15.257 43.47-36.562 49.776-19.461 6.256-42.288-.178-55.305-16.023C7.045 78.514 3.98 55.41 13.057 37.352 21.455 19.31 40.945 7.29 60.837 7.885c20.018.004 39.136 12.854 46.934 31.252 2.898 6.546 4.412 13.697 4.364 20.858Z" fill="#fff" fill-opacity=".25"/><path d="M60.064 11.735c-17.118-.098-33.978 9.586-42.152 24.744-9.559 16.443-7.764 38.392 4.09 53.214 11.62 15.408 32.994 22.148 51.424 16.645 20.176-5.494 35.133-25.448 34.803-46.342a46.607 46.607 0 0 0-1.678-12.634c-4.867-18.694-21.89-33.459-41.175-35.278a44.2 44.2 0 0 0-5.312-.349Zm.092 4.36c4.904.026 9.793.91 14.416 2.548v65.641H47.525V17.918a39.082 39.082 0 0 1 2.832-.695 40.673 40.673 0 0 1 9.799-1.129ZM42.242 19.83V99.98C26.846 93.153 15.945 76.89 16.23 59.895a41.795 41.795 0 0 1 .19-4.189c1.306-15.495 11.713-29.625 25.82-35.876Zm37.613 1.074c6.617 3.348 12.398 8.335 16.469 14.616 6.433 9.223 8.655 20.91 6.778 31.884H79.855v-46.5Z" fill="#fff"/></svg>
