<svg aria-hidden="true" focusable="false" viewBox="0 0 101 95" fill="none" xmlns="http://www.w3.org/2000/svg"><path opacity=".16" d="M8.304 22.314.543 26.782l38.746 22.302 7.826-4.424-38.81-22.346ZM47.051 62.538l-7.762 4.469.064 26.819 7.762-4.47-.064-26.818ZM47.051 44.917l-7.762 4.47.064 8.682 7.762-4.469-.064-8.683Z" fill="#FD308F"/><path opacity=".1" d="m92.581 22.31-38.81 22.347 7.749 4.467 38.819-22.352-7.758-4.462ZM53.917 44.773l-.145 44.579 7.761 4.47.141-44.587-7.757-4.462Z" fill="#00D9EE"/><path opacity=".13" d="m11.735 9.044-.157 8.848 38.809 22.17 38.81-22.17-.2-8.833-38.61 22.367L11.735 9.044Z" fill="#00FFCF"/><path opacity=".11" d="M65.743 4.767 42.607 17.89l7.763 4.47 15.324-8.657.049-8.936Z" fill="#00FFCF"/><path opacity=".07" d="m84.785 44.898-15.49 8.704v9.14l23.326-13.476-7.836-4.368Z" fill="#00D9EE"/><path opacity=".05" d="m92.52 48.782-7.735-3.885 7.736-4.52v8.404Z" fill="#00D9EE"/><path opacity=".07" d="M92.523 58.065 69.443 71.46l-.211 8.958 31.126-17.984-7.835-4.369Z" fill="#00D9EE"/><path opacity=".1" d="m15.896 44.658-7.762 4.47-.063-8.683 7.825 4.213Z" fill="#FD308F"/><path opacity=".1" d="m15.383 44.917-7.142 4.212 31.048 17.878 7.762-4.47-31.668-17.62ZM8.097 58.344.956 62.556 31.59 80.423v-8.942L8.097 58.344Z" fill="#FD308F"/><path d="M39.354 94.45 0 71.788v-9.565l7.219-4.16L0 53.903v-27.43l8.305-4.785 39.36 22.66v9.565l-7.225 4.16 7.224 4.16v27.435l-8.31 4.781ZM1.087 71.162l38.267 22.036 7.224-4.16V62.851L38.27 58.07l8.307-4.784v-8.313L8.305 22.94l-7.218 4.16v26.187l8.304 4.782-8.304 4.784v8.31Z" fill="#FD308F"/><path d="M39.334 49.754.244 27.244l.542-.937 38.548 22.196 7.492-4.313.544.936-8.036 4.628ZM39.832 66.998h-1.087v26.87h1.087v-26.87ZM32.134 81.36.264 63.008l.543-.937 30.241 17.413v-7.69L8.028 58.537l.543-.938 23.563 13.568V81.36ZM15.41 44.273 8 48.663l.554.932 7.41-4.392-.555-.931Z" fill="#FD308F"/><path d="M39.289 67.633 7.698 49.442v-9.91l31.047 17.605v-8.053h1.087V59L8.784 41.394v7.423L39.29 66.382l7.49-4.313.542.938-8.032 4.626Z" fill="#FD308F"/><path d="m61.532 94.448-8.305-4.783V44.348l39.348-22.66 8.305 4.782v27.44l-.27.157L69.84 71.79v7.687L100.886 61.6V71.79l-.27.156-39.084 22.503Zm-7.223-5.41 7.223 4.16L99.8 71.162v-7.687L68.756 81.351v-10.19l.27-.156 30.777-17.719V27.09l-7.223-4.16L54.315 44.97l-.006 44.067Z" fill="#00D9EE"/><path d="M68.756 63.507v-10.22l.27-.157 24.167-13.912v10.084L68.756 63.507Zm1.087-9.594v7.71l22.26-12.944v-7.585l-22.26 12.819Z" fill="#00D9EE"/><path d="m84.956 44.385-.506.959 7.871 4.132.506-.96-7.87-4.131ZM61.52 49.75l-8.036-4.626.543-.94 7.493 4.314 38.547-22.196.543.939L61.52 49.75Z" fill="#00D9EE"/><path d="M62.012 49.068h-1.087v44.785h1.087V49.068ZM92.821 57.586l-.486.97 8.07 4.021.486-.97-8.07-4.02Z" fill="#00D9EE"/><path d="m58.205 1.25 6.685 3.854v9.821l1.614-.896L81.45 5.734l6.664 3.837v7.692L50.387 38.987 12.665 17.265v-7.69l6.684-3.85 14.998 8.63.543.308.544-.308L58.204 1.25Zm0-1.25L34.89 13.425 19.35 4.474 11.58 8.949v8.938l38.807 22.352 38.81-22.348V8.947l-7.74-4.46-15.482 8.593V4.474L58.205 0Z" fill="#00FFCF"/><path d="m50.365 22.982-8.844-5.093L65.126 4.296l.543.938-21.976 12.655 6.682 3.847 14.536-8.06.528.947-15.074 8.36ZM50.93 39.898h-1.086v-8.285L11.834 9.726l.542-.939 38.555 22.2v8.91Z" fill="#00FFCF"/><path d="M88.468 8.893 50.011 30.94l.544.943L89.01 9.836l-.543-.943Z" fill="#00FFCF"/></svg>

