<svg viewBox="0 0 254 254" fill="none" xmlns="http://www.w3.org/2000/svg"><path fill-rule="evenodd" clip-rule="evenodd" d="M126.998 69c-25.603 0-41.603 12.779-48.004 38.332 9.604-12.774 20.802-17.572 33.603-14.375 7.304 1.826 12.525 7.111 18.299 12.967 9.415 9.536 20.308 20.576 44.101 20.576 25.603 0 41.602-12.779 48.003-38.332-9.599 12.774-20.801 17.568-33.598 14.375-7.304-1.826-12.525-7.111-18.304-12.972C161.684 80.04 150.79 69 126.998 69Zm-47.995 57.5c-25.607 0-41.602 12.77-48.003 38.327 9.599-12.779 20.801-17.572 33.603-14.375 7.3 1.822 12.52 7.112 18.299 12.963C92.317 172.96 103.21 184 127.002 184c25.603 0 41.603-12.774 48.004-38.332-9.604 12.779-20.802 17.572-33.603 14.375-7.304-1.821-12.521-7.111-18.299-12.967-9.415-9.536-20.308-20.576-44.1-20.576Z" fill="currentColor"/></svg>