<svg viewBox="0 0 254 254" fill="none" xmlns="http://www.w3.org/2000/svg"><g clip-path="url(#utopia)"><path d="M69.464 59.675c11.848.595 18.407.638 28.963.364 20.595-.589 22.419-.535 24.923.595 2.28 1.072 4.007 3.183 4.007 5.053 0 3.05-2.414 4.914-11.387 8.783-6.436 2.781-8.249 4.287-9.069 7.379-.317 1.41-.499 8.874-.499 23.626 0 24.113.536 38.373 1.641 44.063 1.502 8.011 4.42 15.16 7.745 19.071 1.958 2.278 8.335 5.557 13.623 6.967 4.784 1.275 15.629 1.409 20.456.182 9.751-2.369 15.554-8.242 18.638-18.937 2.183-7.502 3.003-17.893 3.368-42.789.365-25.356-.225-30.822-3.824-35.007-1.55-1.822-3.143-2.733-12.803-7.148-4.859-2.16-7.095-5.782-5.223-8.333 2.547-3.413 7.562-4.458 17.86-3.751 9.041.695 18.124.634 27.155-.182 11.708-1.136 15.553-.777 18.316 1.774 3.915 3.595.59 8.922-7.38 11.928-12.031 4.506-13.125 5.825-13.672 17.024-1.55 31.615-3.556 54.309-5.696 64.597-4.51 21.531-15.307 34.595-33.714 40.726-17.27 5.733-36.042 5.733-54.219 0-8.753-2.733-14.583-6.19-20.686-12.154-11.44-11.199-14.766-22.988-15.554-55.402-.67-28.958-1.218-44.074-1.625-46.062-.773-3.339-3.283-5.246-10.545-8.118-3.325-1.27-6.79-2.91-7.793-3.639-4.553-3.322-4.602-7.282-.09-9.608 3.893-2.004 5.078-2.047 27.084-1.002Z" fill="currentColor"/></g><defs><clipPath id="utopia"><path fill="currentColor" transform="translate(39 59)" d="M0 0h176v141H0z"/></clipPath></defs></svg>