<?xml version="1.0" standalone="no"?>
<!DOCTYPE svg PUBLIC "-//W3C//DTD SVG 20010904//EN"
 "http://www.w3.org/TR/2001/REC-SVG-20010904/DTD/svg10.dtd">
<svg version="1.0" xmlns="http://www.w3.org/2000/svg"
 width="512.000000pt" height="512.000000pt" viewBox="0 0 512.000000 512.000000"
 preserveAspectRatio="xMidYMid meet">

<g transform="translate(0.000000,512.000000) scale(0.100000,-0.100000)"
fill="#000000" stroke="none">
<path d="M1145 3959 c-207 -22 -407 -73 -590 -152 l-120 -51 -124 -2 c-148 -2
-151 -4 -151 -104 0 -84 12 -101 103 -146 91 -46 133 -77 152 -114 9 -17 26
-107 40 -202 30 -220 55 -332 98 -446 69 -184 145 -272 301 -347 315 -151 778
-149 1095 6 86 42 117 64 176 123 119 122 172 252 230 576 30 165 49 214 94
252 52 45 157 49 224 10 50 -30 66 -71 107 -283 45 -232 66 -302 124 -414 78
-152 208 -252 416 -319 144 -47 239 -60 420 -60 230 1 396 37 561 121 214 109
310 307 374 770 15 102 32 198 40 212 20 39 48 61 137 106 45 23 91 53 102 68
25 34 27 134 3 170 -15 23 -19 24 -96 19 -101 -6 -179 9 -274 52 -280 128
-698 191 -1025 155 -232 -25 -397 -80 -602 -199 -87 -51 -166 -63 -405 -62
-245 0 -302 12 -424 85 -248 150 -615 215 -986 176z m535 -294 c214 -32 319
-86 373 -190 40 -76 33 -330 -14 -514 -53 -208 -160 -312 -384 -373 -66 -18
-107 -21 -235 -21 -133 -1 -171 3 -270 26 -63 15 -144 42 -180 59 -55 28 -70
42 -98 88 -45 75 -79 188 -108 360 -35 199 -43 375 -20 434 16 41 23 47 74 67
71 26 262 66 379 79 113 11 361 4 483 -15z m2362 0 c113 -17 249 -50 295 -72
48 -22 63 -65 63 -180 0 -174 -57 -495 -110 -618 -34 -78 -67 -115 -134 -146
-186 -86 -477 -111 -681 -59 -179 45 -278 119 -341 254 -67 146 -105 467 -70
589 34 115 127 180 314 219 195 39 456 45 664 13z"/>
<path d="M1547 3539 c-122 -64 -197 -222 -197 -414 0 -249 127 -435 298 -435
47 0 67 6 103 29 87 55 150 158 175 287 18 95 18 143 0 237 -27 139 -103 258
-191 298 -54 25 -139 24 -188 -2z"/>
<path d="M3395 3539 c-145 -72 -230 -301 -191 -517 54 -305 282 -430 457 -250
44 46 92 139 109 213 16 71 14 229 -5 298 -44 169 -152 277 -275 277 -34 -1
-70 -8 -95 -21z"/>
<path d="M1236 1759 c-37 -29 -33 -65 14 -135 97 -144 273 -317 435 -426 85
-57 273 -158 295 -158 6 0 10 47 10 125 0 69 2 125 5 125 3 0 72 -14 153 -30
82 -17 185 -33 228 -36 43 -3 89 -7 102 -10 l22 -4 0 -255 0 -255 60 0 60 0 0
255 0 255 23 4 c12 3 58 7 101 10 43 3 146 19 228 36 81 16 150 30 153 30 3 0
5 -56 5 -125 0 -83 4 -125 11 -125 21 0 226 110 301 162 163 113 330 277 429
423 47 69 50 105 13 134 -34 27 -53 26 -97 -4 -139 -93 -378 -215 -537 -273
-451 -164 -861 -171 -1310 -22 -202 66 -440 182 -607 295 -44 30 -63 31 -97 4z"/>
</g>
</svg>
