<?xml version="1.0" encoding="UTF-8" standalone="no"?>
<!-- Uploaded to: SVG Repo, www.svgrepo.com, Generator: SVG Repo Mixer Tools -->

<svg
   fill="#000000"
   height="800px"
   width="800px"
   version="1.1"
   id="Layer_1"
   viewBox="0 0 512.001 512.001"
   xml:space="preserve"
   sodipodi:docname="logo.svg"
   inkscape:version="1.3.2 (091e20ef0f, 2023-11-25)"
   xmlns:inkscape="http://www.inkscape.org/namespaces/inkscape"
   xmlns:sodipodi="http://sodipodi.sourceforge.net/DTD/sodipodi-0.dtd"
   xmlns="http://www.w3.org/2000/svg"
   xmlns:svg="http://www.w3.org/2000/svg"><defs
   id="defs10" /><sodipodi:namedview
   id="namedview10"
   pagecolor="#ffffff"
   bordercolor="#000000"
   borderopacity="0.25"
   inkscape:showpageshadow="2"
   inkscape:pageopacity="0.0"
   inkscape:pagecheckerboard="0"
   inkscape:deskcolor="#d1d1d1"
   inkscape:zoom="2.35625"
   inkscape:cx="400"
   inkscape:cy="400"
   inkscape:window-width="3840"
   inkscape:window-height="2091"
   inkscape:window-x="0"
   inkscape:window-y="0"
   inkscape:window-maximized="1"
   inkscape:current-layer="Layer_1" />
<g
   id="g2"
   style="fill:#ff4500;fill-opacity:1">
	<g
   id="g1"
   style="fill:#ff4500;fill-opacity:1">
		<path
   d="M441.658,104.515l-23.609-23.609c-19.527-19.538-51.316-19.527-70.832,0l-7.869,7.869l-23.614-23.614    c-6.521-6.521-17.087-6.521-23.609,0l-44.575,44.575c-21.699-9.182-45.244-14.01-69.55-14.01    c-47.625,0-92.343,18.494-125.924,52.076c-69.435,69.435-69.435,182.419,0,251.853c33.582,33.582,78.299,52.076,125.924,52.076    c47.625,0,92.348-18.494,125.93-52.076c33.582-33.582,52.076-78.299,52.076-125.924c0-24.306-4.828-47.851-14.01-69.551    l44.575-44.575c6.521-6.516,6.521-17.092,0-23.609l-23.614-23.614l7.869-7.869c6.506-6.506,17.097-6.516,23.614,0l23.609,23.609    c3.261,3.261,7.533,4.892,11.804,4.892s8.544-1.631,11.804-4.892C448.179,121.607,448.179,111.03,441.658,104.515z     M280.321,376.047c-27.277,27.272-63.614,42.293-102.321,42.293c-38.707,0-75.038-15.022-102.315-42.293    c-56.414-56.418-56.414-148.217,0-204.636c27.277-27.272,63.608-42.293,102.315-42.293c22.581,0,44.351,5.121,63.991,14.796    c0.474,0.305,0.957,0.599,1.465,0.856c11.984,6.082,22.928,13.665,32.612,22.57c0.13,0.12,0.259,0.242,0.388,0.362    c1.31,1.213,2.6,2.448,3.863,3.71c1.262,1.263,2.495,2.553,3.71,3.863c0.12,0.129,0.242,0.259,0.362,0.39    c8.905,9.683,16.489,20.628,22.57,32.612c0.257,0.509,0.551,0.991,0.856,1.465c9.675,19.64,14.796,41.411,14.796,63.991    C322.615,312.439,307.593,348.77,280.321,376.047z M325.329,173.631c-5.468-8.023-11.62-15.652-18.444-22.8    c-0.973-1.021-1.958-2.031-2.956-3.029c-0.998-0.997-2.008-1.982-3.029-2.956c-7.148-6.823-14.777-12.976-22.8-18.444    l25.828-25.828l47.229,47.229L325.329,173.631z"
   id="path1"
   style="fill:#ff4500;fill-opacity:1" />
	</g>
</g>
<g
   id="g4"
   style="fill:#ff4500;fill-opacity:1">
	<g
   id="g3"
   style="fill:#ff4500;fill-opacity:1">
		<path
   d="M507.107,167.232l-11.129-11.13c-6.511-6.521-17.087-6.521-23.609,0c-6.521,6.516-6.521,17.087,0,23.609l11.13,11.13    c3.261,3.261,7.533,4.892,11.804,4.892c4.271,0,8.544-1.631,11.804-4.892C513.629,184.325,513.629,173.754,507.107,167.232z"
   id="path2"
   style="fill:#ff4500;fill-opacity:1" />
	</g>
</g>
<g
   id="g6"
   style="fill:#ff4500;fill-opacity:1">
	<g
   id="g5"
   style="fill:#ff4500;fill-opacity:1">
		<path
   d="M440.326,156.102c-6.521-6.522-17.097-6.522-23.608,0l-11.13,11.13c-6.521,6.521-6.521,17.092,0,23.609    c3.261,3.261,7.533,4.892,11.804,4.892s8.544-1.631,11.804-4.892l11.13-11.13C446.847,173.189,446.847,162.619,440.326,156.102z"
   id="path4"
   style="fill:#ff4500;fill-opacity:1" />
	</g>
</g>
<g
   id="g8">
	<g
   id="g7">
		<path
   d="M507.11,89.319c-3.261-3.261-7.533-4.892-11.805-4.892c-4.272,0-8.544,1.631-11.804,4.892l-11.13,11.13    c-6.521,6.521-6.521,17.092,0,23.609c6.521,6.521,17.097,6.521,23.609,0l11.13-11.13    C513.631,106.407,513.631,95.836,507.11,89.319z"
   id="path6"
   style="fill:#ff4500;fill-opacity:1" />
	</g>
</g>
<g
   id="g10"
   style="fill:#ff4500;fill-opacity:1">
	<g
   id="g9"
   style="fill:#ff4500;fill-opacity:1">
		<path
   d="M256.762,328.711c-6.522-6.522-17.087-6.522-23.609,0c-14.733,14.733-34.294,22.847-55.066,22.847    s-40.331-8.114-55.066-22.847c-6.521-6.521-17.087-6.521-23.609,0c-6.521,6.516-6.521,17.092,0,23.609    c21.038,21.043,48.978,32.63,78.674,32.63s57.636-11.587,78.674-32.63C263.283,345.803,263.283,335.227,256.762,328.711z"
   id="path8"
   style="fill:#ff4500;fill-opacity:1" />
	</g>
</g>
</svg>
